<svg width="246" height="244" viewBox="0 0 246 244" fill="none" xmlns="http://www.w3.org/2000/svg">
<g clip-path="url(#clip0_2273_305)">
<path d="M136.14 58.1284C136.14 85.1292 114.224 107.02 87.1878 107.02C60.1515 107.02 38.2383 85.1314 38.2383 58.1284C38.2383 31.1254 60.1537 9.23926 87.1878 9.23926C114.222 9.23926 136.14 31.1277 136.14 58.1284Z" fill="#F3CD16"/>
<path d="M139.673 167.764L98.9222 167.915L92.6729 105.265H142.848L139.673 167.764Z" fill="#F9C8A3"/>
<path d="M146.497 60.8927C145.998 60.8927 145.512 60.9399 145.042 61.0252C141.405 47.5585 153.263 46.418 119.487 46.418C83.3378 46.418 97.5809 47.5473 93.9392 61.0028C93.5053 60.9309 93.058 60.8927 92.5994 60.8927C88.9285 60.8927 85.9521 63.2839 85.9521 66.2318C85.9521 69.1798 88.8678 71.517 92.487 71.5664C92.4847 71.7573 92.4825 71.9459 92.4825 72.1344C92.4825 91.0547 104.574 106.394 119.49 106.394C134.405 106.394 146.497 91.0547 146.497 72.1344C146.497 71.9459 146.492 71.7573 146.49 71.5687H146.497C150.168 71.5687 153.144 69.1775 153.144 66.2296C153.144 63.2816 150.168 60.8905 146.497 60.8905" fill="#F9C8A3"/>
<path d="M141.115 52.812C141.115 53.7191 144.966 65.2257 144.966 65.2257L145.55 60.9868C145.901 60.7847 148.234 61.4919 148.234 61.4919C148.819 49.4824 140.998 42.4167 140.998 42.4167C136.446 33.9389 125.359 32.5244 118.357 32.5244C111.354 32.5244 84.745 43.2228 84.745 43.2228C83.8099 43.9278 89.6456 48.6719 89.6456 48.6719C87.4291 53.9211 88.362 61.7928 88.362 61.7928C89.4118 61.3887 91.8644 60.9845 91.8644 60.9845C91.8644 61.2876 93.3817 64.2154 93.3817 64.2154C93.3817 63.7102 95.6005 52.8098 95.6005 52.8098L94.4338 49.68C116.257 54.4241 141.432 49.323 141.432 49.323L141.117 52.8098L141.115 52.812Z" fill="#7D3B12"/>
<path d="M127.696 69.1236C127.696 70.8637 129.05 72.2737 130.722 72.2737C132.395 72.2737 133.748 70.8637 133.748 69.1236C133.748 67.3836 132.392 65.9736 130.722 65.9736C129.052 65.9736 127.696 67.3859 127.696 69.1236Z" fill="#321D13"/>
<path d="M110.581 69.1241C110.581 70.9315 109.174 72.3976 107.441 72.3976C105.707 72.3976 104.298 70.9315 104.298 69.1241C104.298 67.3167 105.705 65.8506 107.441 65.8506C109.176 65.8506 110.581 67.3167 110.581 69.1241Z" fill="#321D13"/>
<path d="M111.408 63.028C111.641 63.028 111.878 62.9629 112.078 62.826C112.55 62.5071 112.631 61.9167 112.262 61.508C111.349 60.5022 109.623 59.8286 107.759 59.75C105.792 59.6715 103.978 60.2687 102.688 61.4407C102.274 61.8156 102.29 62.4106 102.724 62.7676C103.16 63.1268 103.846 63.1111 104.257 62.7362C105.406 61.6966 106.878 61.5911 107.654 61.627C109.05 61.6832 110.135 62.2063 110.551 62.6688C110.765 62.9045 111.086 63.028 111.408 63.028Z" fill="#7D3B12"/>
<path d="M134.69 62.9984C134.926 62.9984 135.16 62.9333 135.36 62.7986C135.832 62.4776 135.913 61.8871 135.544 61.4807C134.629 60.4748 132.905 59.8013 131.039 59.7227C129.07 59.6441 127.258 60.2413 125.97 61.4133C125.556 61.7883 125.572 62.3833 126.006 62.7402C126.442 63.0995 127.128 63.0838 127.541 62.7088C128.688 61.6693 130.163 61.5638 130.938 61.5997C132.334 61.6558 133.42 62.1789 133.838 62.6414C134.051 62.8772 134.371 63.0007 134.692 63.0007" fill="#7D3B12"/>
<path d="M118.959 91.4406C113.188 91.4406 109.405 89.1011 109.178 88.9574C108.515 88.5375 108.371 87.7315 108.859 87.159C109.342 86.5865 110.273 86.463 110.934 86.8783C111.217 87.0535 117.7 90.9826 126.548 87.2757C127.288 86.9659 128.178 87.2331 128.535 87.873C128.895 88.5129 128.585 89.283 127.845 89.5928C124.574 90.9624 121.562 91.4383 118.957 91.4383" fill="#F08178"/>
<path d="M85.7473 106.704L78.6954 148.24L48.4468 150.492V159.383L92.1406 162.473L95.5035 105.263L85.7473 106.704Z" fill="#F9C8A3"/>
<path d="M30.9324 142.87L29.1071 148.981L35.316 151.343L38.8206 148.617L37.7775 143.716L33.095 141.577L35.4846 139.72L39.8681 140.818L42.9613 145.398L44.9463 149.59L38.1327 155.517L27.5088 153.09L25.6362 149.594L28.5766 142.616L30.9324 142.87Z" fill="#F9C8A3"/>
<path d="M37.7599 152.984L25.0903 151.632L23.4763 147.167L20.7383 147.885L23.5145 154.49L38.1893 158.48L44.9489 149.591L42.6357 146.899L37.7599 152.984Z" fill="#F9C8A3"/>
<path d="M38.1895 158.48L48.4469 159.382L51.0186 150.301L44.9468 149.589L38.1895 158.48Z" fill="#F9C8A3"/>
<path d="M151.882 107.185L158.932 148.135L189.18 150.38V159.248L145.489 162.331L142.126 105.263L151.882 107.185Z" fill="#F9C8A3"/>
<path d="M206.697 142.775L208.522 148.871L202.311 151.228L198.809 148.509L199.852 143.619L204.532 141.484L202.145 139.632L197.759 140.727L194.668 145.296L192.681 149.479L199.494 155.391L210.118 152.971L211.993 149.484L209.053 142.524L206.697 142.775Z" fill="#F9C8A3"/>
<path d="M199.87 152.865L212.539 151.518L214.151 147.063L216.889 147.78L214.113 154.369L199.44 158.348L192.681 149.479L194.994 146.794L199.87 152.865Z" fill="#F9C8A3"/>
<path d="M199.439 158.348L189.183 159.248L186.609 150.189L192.681 149.479L199.439 158.348Z" fill="#F9C8A3"/>
<path d="M92.7803 105.265L82.5453 106.702L76.2959 120.608L95.5025 130.359L99.9198 114.694L92.7803 105.265Z" fill="#FBFAF8"/>
<path d="M142.989 105.265L153.224 106.702L159.474 120.608L140.267 130.359L135.85 114.694L142.989 105.265Z" fill="#FBFAF8"/>
<path d="M131.116 105.265C129.639 108.911 126.487 111.818 118.907 111.818C111.327 111.818 106.77 108.884 106.77 105.265H92.7812L98.7923 167.607L139.544 167.457L142.956 105.265H131.116Z" fill="#FBFAF8"/>
<path d="M106.525 105.265L118.345 111.605L131.114 105.265L124.689 118.633L118.246 113.981L112.298 119.028L106.525 105.265Z" fill="#D4DADA"/>
<path d="M122.474 207.593C122.474 207.593 124.575 204.67 128.368 201.406C129.786 200.184 129.37 198.498 131.944 198.042C132.978 197.861 140.7 200.425 142.953 200.651C147.404 201.1 152.994 200.831 156.135 201.228C157.627 201.417 159.277 202.852 159.277 202.852L161.919 203.451L163.432 205.728L160.898 208.272L158.115 206.651L148.997 207.407L123.748 211.244L122.474 207.593Z" fill="#F9C8A3"/>
<path d="M30.901 197.334C31.8609 198.133 32.823 198.932 33.7829 199.732C33.9312 199.855 34.0841 199.941 34.2842 199.941C34.4573 199.941 34.6641 199.862 34.7832 199.732C35.0237 199.471 35.0867 198.986 34.7832 198.733C33.8233 197.933 32.8634 197.134 31.9013 196.335C31.7552 196.211 31.6001 196.126 31.4023 196.126C31.2292 196.126 31.0201 196.205 30.901 196.335C30.6604 196.595 30.5975 197.082 30.901 197.334Z" fill="#1580A5"/>
<path d="M203.109 171.247C202.933 174.062 201.92 176.759 200.245 179.026C200.018 179.334 200.193 179.814 200.499 179.994C200.859 180.203 201.241 180.048 201.468 179.74C203.289 177.271 204.334 174.302 204.525 171.247C204.581 170.337 203.165 170.342 203.109 171.247Z" fill="#1580A5"/>
<path d="M217.846 169.522C218.148 174.875 217.026 180.22 214.558 184.985C214.139 185.793 215.362 186.507 215.78 185.699C218.359 180.721 219.579 175.121 219.263 169.522C219.211 168.617 217.795 168.61 217.846 169.522Z" fill="#1580A5"/>
<path d="M32.9037 175.503C35.2618 181.397 39.6004 186.37 45.1664 189.45C45.9644 189.89 46.6792 188.671 45.8812 188.229C40.6569 185.337 36.4869 180.674 34.2682 175.128C33.9355 174.293 32.5642 174.656 32.9037 175.503Z" fill="#1580A5"/>
<path d="M106.161 222.109C110.569 224.011 115.341 224.893 120.141 224.628C121.047 224.579 121.054 223.165 120.141 223.214C115.604 223.465 111.05 222.689 106.873 220.888C106.046 220.531 105.324 221.75 106.158 222.109" fill="#1580A5"/>
<path d="M121.842 234.312C127.217 233.975 132.594 233.638 137.969 233.304C138.873 233.245 138.88 231.833 137.969 231.889C132.592 232.226 127.217 232.561 121.842 232.897C120.939 232.954 120.932 234.368 121.842 234.312Z" fill="#1580A5"/>
<path d="M121.501 165.526C121.501 165.526 60.6819 158.813 54.6011 161.37C48.5204 163.927 47.2817 174.96 51.101 179.116C54.9203 183.272 125.428 214.128 133.109 213.809L135.847 195.899L119.9 187.295" fill="#202B51"/>
<path d="M116.164 165.526C116.164 165.526 176.983 158.813 183.064 161.37C189.145 163.927 190.383 176.002 186.564 180.158C182.745 184.314 130.158 207.913 122.477 207.594L107.681 172.21L119.19 175.533" fill="#202B51"/>
<path d="M114.415 184.347C114.415 184.347 106.572 171.551 103.681 172.903C100.79 174.254 100.986 174.277 100.986 174.277L94.3137 177.997L82.6107 183.085L81.1743 185.685L78.5127 188.347L79.322 191.111L81.9229 191.349L84.227 189.625L94.4148 186.253L112.796 183.844L114.415 184.347Z" fill="#F9C8A3"/>
<path d="M197.8 134.479V139.091C197.8 139.091 198.643 138.871 199.207 139.091M199.956 134.008L203.145 136.736L201.833 139.089C201.833 139.089 203.145 139.309 203.896 139.809" stroke="#ED6B19" stroke-width="0.648744" stroke-miterlimit="10"/>
<path d="M208.994 116.589L212.624 118.585L208.562 119.492L212.624 119.117L208.708 120.799L208.209 116.385L208.994 116.589Z" fill="#FFD629"/>
<path d="M208.379 116.549C207.239 112.754 201.828 111.708 199.702 115.363C199.189 116.243 199.358 121.627 198.4 121.627C197.611 121.627 196.854 121.618 196.127 121.616C195.968 121.603 200.109 121.85 199.938 121.834L189.595 118.255C189.595 118.255 188.792 119.324 189.894 120.931C185.834 120.428 184.717 119.867 184.717 119.867C185.144 122.296 186.392 134.14 196.775 134.611C203.33 134.91 205.956 133.323 208.172 127.723C209.341 124.771 208.655 117.465 208.381 116.547" fill="#E72887"/>
<path d="M202.487 129.283C201.413 131.454 198.45 132.182 195.871 130.907C193.293 129.631 193.151 124.667 193.151 124.667C193.151 124.667 197.191 121.769 199.767 123.044C202.346 124.319 203.564 127.11 202.487 129.281" fill="#AF1268"/>
<path d="M207.056 117.036C207.056 118.137 206.164 119.028 205.062 119.028C203.961 119.028 203.068 118.137 203.068 117.036C203.068 115.936 203.961 115.045 205.062 115.045C206.164 115.045 207.056 115.939 207.056 117.036Z" fill="#FBFAF8"/>
<path d="M207.057 117.036C207.057 117.709 206.51 118.255 205.836 118.255C205.161 118.255 204.615 117.709 204.615 117.036C204.615 116.362 205.161 115.816 205.836 115.816C206.51 115.816 207.057 116.362 207.057 117.036Z" fill="#20244C"/>
<path d="M230.844 113.805H231.022C231.116 113.805 231.116 113.659 231.022 113.659H230.844C230.75 113.659 230.75 113.805 230.844 113.805Z" fill="white"/>
<path d="M232.808 103.623C232.942 101.364 232.455 99.1686 231.596 97.0851C231.457 96.7416 230.89 96.8943 231.034 97.24C231.893 99.2989 232.302 101.407 232.502 103.623C232.52 103.816 232.796 103.821 232.808 103.623Z" fill="white"/>
<path d="M223.649 115.952C224.067 116.194 224.602 115.705 224.402 115.265C224.214 114.849 223.609 114.849 223.364 115.204C223.186 115.462 223.625 115.725 223.789 115.451C223.811 115.415 223.84 115.404 223.894 115.406C223.937 115.406 223.987 115.42 224.005 115.451C224.083 115.572 223.885 115.707 223.766 115.673C223.6 115.624 223.499 115.864 223.649 115.952Z" fill="white"/>
<path d="M224.535 115.416C224.568 113.938 224.658 112.461 224.732 110.986C224.746 110.712 224.321 110.714 224.308 110.986C224.233 112.47 224.287 113.934 224.402 115.416C224.409 115.499 224.532 115.503 224.535 115.416Z" fill="white"/>
<path d="M228.639 115.15C228.794 113.471 228.861 111.785 228.962 110.101C228.98 109.805 228.497 109.8 228.497 110.101C228.506 111.783 228.481 113.469 228.544 115.15C228.549 115.211 228.632 115.209 228.639 115.15Z" fill="white"/>
<path d="M228.683 110.196C229.685 109.839 230.688 109.48 231.69 109.121C231.89 109.049 231.805 108.728 231.603 108.799C230.6 109.161 229.6 109.525 228.597 109.888C228.406 109.958 228.487 110.263 228.683 110.194" fill="white"/>
<path d="M231.39 109.217C231.24 110.541 231.154 111.868 231.132 113.202C231.127 113.534 231.647 113.534 231.651 113.202C231.667 111.87 231.748 110.541 231.896 109.217C231.93 108.895 231.426 108.898 231.39 109.217Z" fill="white"/>
<path d="M230.653 113.204C230.579 113.242 230.509 113.294 230.453 113.353C230.424 113.384 230.395 113.42 230.37 113.456C230.361 113.472 230.329 113.53 230.327 113.53C230.134 113.687 230.343 114.019 230.57 113.945C230.75 113.887 230.923 113.804 231.096 113.732C231.244 113.669 231.341 113.53 231.271 113.364C231.206 113.207 231.033 113.162 230.887 113.234C230.718 113.319 230.538 113.395 230.379 113.492C230.5 113.541 230.622 113.591 230.743 113.64C230.741 113.631 230.739 113.624 230.736 113.615V113.739C230.759 113.667 230.804 113.608 230.867 113.568C231.096 113.418 230.896 113.076 230.653 113.202" fill="white"/>
<path d="M224.683 107.726C224.924 106.41 225.067 105.083 225.344 103.774C225.391 103.559 225.061 103.465 225.011 103.682C224.71 105.009 224.483 106.347 224.566 107.71C224.571 107.773 224.67 107.796 224.683 107.726Z" fill="white"/>
<path d="M225.101 104.601C225.315 104.825 225.607 104.796 225.861 104.644C226.158 104.464 226.326 104.152 226.329 103.808C226.329 103.456 226.16 103.088 225.793 102.989C225.4 102.886 225.034 103.175 224.995 103.557C224.966 103.865 225.427 103.966 225.564 103.712C225.6 103.647 225.677 103.633 225.744 103.665C225.865 103.719 225.874 103.914 225.85 104.022C225.78 104.334 225.456 104.516 225.151 104.475C225.083 104.466 225.061 104.558 225.099 104.599" fill="white"/>
<path d="M228.259 115.299C228.315 115.272 228.369 115.245 228.426 115.218C228.372 115.234 228.318 115.247 228.264 115.26C228.27 115.26 228.273 115.26 228.277 115.26C228.527 115.269 228.68 114.978 228.558 114.771C228.5 114.672 228.392 114.609 228.277 114.609C228.219 114.609 228.165 114.625 228.113 114.654C228.066 114.683 228.025 114.722 227.996 114.771C227.994 114.776 227.992 114.778 227.989 114.78C228.028 114.742 228.066 114.704 228.104 114.666C228.05 114.692 227.994 114.719 227.938 114.746C227.87 114.78 227.812 114.865 227.792 114.937C227.771 115.014 227.78 115.115 227.823 115.182C227.868 115.249 227.933 115.31 228.014 115.328C228.102 115.348 228.18 115.335 228.259 115.296" fill="white"/>
<path d="M228.95 110.833C229.837 110.31 230.732 109.798 231.665 109.356C231.946 109.223 231.697 108.779 231.416 108.934C230.512 109.425 229.592 109.895 228.696 110.398C228.41 110.555 228.669 110.997 228.95 110.833Z" fill="white"/>
<path d="M234.654 105.804C234.964 107.111 234.89 108.588 235.002 109.926C235.029 110.256 235.549 110.258 235.519 109.926C235.398 108.548 235.009 107.135 234.969 105.761C234.96 105.532 234.6 105.575 234.654 105.804Z" fill="white"/>
<path d="M234.938 106.863C235.275 106.803 235.63 106.661 235.796 106.34C235.983 105.981 235.866 105.534 235.52 105.319C235.16 105.097 234.63 105.2 234.421 105.584C234.207 105.972 234.337 106.435 234.695 106.684C235.073 106.949 235.551 106.338 235.192 106.04C235.18 106.028 235.14 105.997 235.169 106.028C235.198 106.06 235.169 106.01 235.167 106.022C235.153 106.08 235.162 106.026 235.185 106.006C235.138 106.053 235.147 106.035 235.174 106.035C235.16 106.035 235.279 106.057 235.237 106.035C235.304 106.075 235.322 106.181 235.286 106.253C235.216 106.392 234.953 106.41 234.819 106.432C234.533 106.477 234.652 106.917 234.938 106.868" fill="white"/>
<path d="M217.423 122.897C217.36 121.487 217.344 120.1 217.124 118.703C217.067 118.339 216.474 118.485 216.562 118.858C216.87 120.18 217.088 121.541 216.973 122.897C216.948 123.185 217.436 123.191 217.425 122.897" fill="white"/>
<path d="M216.743 118.925C217.426 118.508 218.076 118.045 218.694 117.54C218.878 117.389 218.613 117.122 218.431 117.277C217.844 117.776 217.224 118.227 216.574 118.64C216.394 118.752 216.558 119.037 216.74 118.925" fill="white"/>
<path d="M217.955 117.715C217.906 117.947 217.998 118.205 218.214 118.322C218.461 118.456 218.769 118.357 218.9 118.108C218.967 117.978 218.942 117.823 218.823 117.731C218.715 117.648 218.538 117.646 218.441 117.754C218.405 117.794 218.468 117.745 218.441 117.76C218.405 117.783 218.49 117.742 218.45 117.756C218.425 117.76 218.434 117.76 218.475 117.754C218.448 117.758 218.419 117.76 218.392 117.765C218.34 117.771 218.405 117.769 218.423 117.765C218.443 117.769 218.445 117.769 218.43 117.765C218.414 117.76 218.414 117.76 218.432 117.765C218.452 117.778 218.475 117.801 218.45 117.769C218.459 117.783 218.47 117.794 218.477 117.807C218.477 117.837 218.479 117.839 218.477 117.821C218.477 117.81 218.477 117.796 218.479 117.785C218.495 117.655 218.367 117.54 218.25 117.524C218.126 117.509 217.985 117.585 217.96 117.715" fill="white"/>
<path d="M218.196 117.995C218.283 117.963 218.373 117.932 218.461 117.901C218.555 117.867 218.63 117.768 218.596 117.665C218.564 117.568 218.461 117.499 218.358 117.53C218.268 117.557 218.18 117.584 218.09 117.613C217.991 117.642 217.917 117.755 217.951 117.858C217.982 117.954 218.09 118.035 218.196 117.997" fill="white"/>
<path d="M232.173 102.129C231.429 101.952 230.939 103.016 231.364 103.562C231.847 104.179 232.966 103.811 233.029 103.047C233.05 102.803 232.676 102.769 232.611 102.991C232.506 103.357 231.984 103.577 231.685 103.283C231.525 103.128 231.548 102.872 231.636 102.686C231.741 102.461 231.935 102.349 232.173 102.309C232.265 102.293 232.258 102.149 232.173 102.129Z" fill="white"/>
<path d="M243.248 106.597C243.102 105.708 242.893 104.85 242.592 104.001C242.329 103.258 241.816 102.533 241.587 101.801C241.27 100.802 242.812 99.2033 243.248 98.1346C243.062 98.1593 242.875 98.1817 242.688 98.2064C243.547 99.7017 244.145 101.267 244.822 102.841C245.017 103.296 245.676 102.955 245.584 102.519C245.224 100.791 244.269 99.1988 243.17 97.836C243.032 97.6653 242.693 97.7529 242.659 97.9707C242.457 99.237 241.787 100.196 240.834 101.008C240.778 101.056 240.764 101.161 240.805 101.222C241.949 102.885 242.648 104.637 242.911 106.642C242.942 106.886 243.289 106.844 243.248 106.594" fill="white"/>
<path d="M242.847 105.142C242.022 105.384 241.721 106.345 242.069 107.086C242.139 107.235 242.368 107.252 242.474 107.138C242.897 106.682 243.088 106.186 243.286 105.611C243.414 105.239 242.757 105.099 242.726 105.535C242.692 105.984 242.4 106.446 242.11 106.774C242.245 106.792 242.38 106.81 242.515 106.826C242.267 106.334 242.537 105.737 242.984 105.465C243.155 105.362 243.047 105.081 242.847 105.14" fill="white"/>
<path d="M244.622 102.454C244.21 102.353 243.797 102.623 243.687 103.029C243.579 103.429 243.839 103.804 244.222 103.92C244.581 104.028 244.99 103.889 245.17 103.554C245.359 103.204 245.287 102.717 245.031 102.423C244.799 102.16 244.381 102.578 244.647 102.807C244.79 102.932 244.862 103.069 244.79 103.26C244.736 103.408 244.599 103.487 244.442 103.467C244.316 103.449 244.165 103.361 244.174 103.218C244.186 103.074 244.336 102.939 244.478 102.98C244.815 103.074 244.963 102.54 244.622 102.456" fill="white"/>
<path d="M238.006 94.0726C237.577 93.3092 237.188 92.5301 236.799 91.7466C236.478 91.0955 235.059 89.0613 236.581 88.747C235.999 88.866 236.246 89.8 236.828 89.6428C238.503 89.1915 237.339 86.8431 235.889 87.8107C235.178 88.2845 235.172 89.2432 235.403 89.9796C235.875 91.4794 236.799 92.8759 237.413 94.3263C237.595 94.7619 238.238 94.4857 238.006 94.0771" fill="white"/>
<path d="M235.916 90.514C237.002 90.514 237.002 88.8301 235.916 88.8301C234.83 88.8301 234.83 90.514 235.916 90.514Z" fill="white"/>
<path d="M235.916 90.514C237.002 90.514 237.002 88.8301 235.916 88.8301C234.83 88.8301 234.83 90.514 235.916 90.514Z" fill="white"/>
</g>
<defs>
<clipPath id="clip0_2273_305">
<rect width="244.608" height="242.481" fill="white" transform="translate(0.985352 0.535156)"/>
</clipPath>
</defs>
</svg>
