<svg width="100" height="151" viewBox="0 0 100 151" fill="none" xmlns="http://www.w3.org/2000/svg">
<mask id="mask0_2345_755" style="mask-type:luminance" maskUnits="userSpaceOnUse" x="0" y="0" width="100" height="151">
<path d="M100 0.0351562H0V150.035H100V0.0351562Z" fill="white"/>
</mask>
<g mask="url(#mask0_2345_755)">
<path d="M54.3599 33.2247C54.1057 33.4488 50.1731 35.9645 50.2479 35.1425C50.4024 33.3891 48.623 34.759 47.691 34.3903C46.729 34.0068 46.0113 32.5273 44.9447 31.9594C43.1853 31.0278 39.173 29.5035 37.4933 31.3168C36.8154 29.4836 34.0591 28.831 32.6536 30.3703C30.0518 28.6666 27.0613 30.8834 27.3803 33.4887C25.7604 31.6356 20.8908 34.6892 22.9992 37.4041C20.2329 37.3194 19.5052 41.0157 22.0023 41.7978C20.0136 43.2424 21.2148 46.8938 23.8365 46.9586C22.4659 48.4131 23.9512 50.9636 25.9299 51.128C25.0975 52.6673 26.528 53.7881 28.2326 53.5939C27.4202 55.2527 27.9335 58.5604 32.7034 57.4794C29.8325 61.8182 38.0266 65.7187 41.8295 63.6664C42.8364 67.537 48.9271 66.6901 50.0186 64.4236C50.8958 65.6191 54.0409 65.8383 53.8166 63.9304C56.5031 66.0923 64.4828 63.2828 61.9608 59.8406C67.6976 59.6314 70.3443 54.3461 68.0266 52.8317C71.8694 53.3348 72.6769 49.3995 70.9523 47.1479C74.1173 47.3322 75.1989 42.1066 72.6819 40.8114C74.7503 37.6731 72.2881 36.1637 70.748 36.4676C72.0339 34.5597 69.7661 31.1026 66.9949 32.6518C67.7923 28.9456 63.3863 28.5371 62.6137 30.186C60.8244 26.5495 55.8452 31.9295 54.3649 33.2346" fill="#311C13"/>
<path d="M43.1753 140.103L41.6451 181.643L36.5861 181.459L33.5607 140.063L31.8013 120.391L44.9447 120.291L43.1753 140.103Z" fill="#AF7F48"/>
<path d="M61.9703 140.023L58.6857 181.872H53.0784L52.1513 139.779L51.0498 120.525L63.1665 120.062L61.9703 140.023Z" fill="#AF7F48"/>
<path d="M6.90929 45.6888L8.78834 48.588L6.67503 44.3139C6.39592 43.751 6.62519 43.0536 7.18841 42.7747C7.75163 42.4907 8.43945 42.7248 8.71857 43.2877L10.8468 47.5818C10.8468 47.5818 10.8618 47.5818 10.8717 47.5718L8.78834 42.2616C8.5491 41.6538 8.84816 40.9564 9.45125 40.7173C10.0593 40.4732 10.7471 40.7771 10.9864 41.3848L13.1545 46.9192C13.1545 46.9192 13.1894 46.9192 13.2093 46.9142L11.9434 42.954C11.749 42.3512 12.0829 41.6987 12.681 41.5094C13.2791 41.3151 13.9271 41.6488 14.1165 42.2466C14.1165 42.2466 16.4092 49.4299 16.5438 49.5644C16.783 49.7935 18.1537 48.9517 17.4609 46.5406C16.9475 44.7573 19.0209 45.3501 19.3499 46.2965C19.8284 47.6814 19.6988 48.7026 19.4297 49.5195C18.991 50.8446 17.4858 52.3141 17.4858 52.3141C17.4858 52.3141 22.9037 70.2873 23.5317 70.083C24.1597 69.8788 31.5862 66.4067 31.5862 66.4067L34.2328 72.499C34.2328 72.499 24.6431 77.6947 19.8683 77.4058C18.0889 77.3012 12.068 54.785 12.068 54.785C12.068 54.785 9.01263 52.0053 8.93787 51.8957L5.2645 46.7698C4.97043 46.3165 5.09504 45.6988 5.5486 45.3999C6.00217 45.101 6.61522 45.2305 6.90929 45.6838" fill="#AF7F48"/>
<path d="M67.359 71.4326L71.2417 86.0432L72.1339 106.771H67.2145L61.1387 72.3541L67.359 71.4326Z" fill="#AF7F48"/>
<path d="M59.7818 75.5325L69.511 72.3842C69.835 72.2696 63.2309 62.0028 62.5929 61.1859C59.3133 56.9915 51.5479 56.0948 46.5936 56.0898C41.9533 56.0898 34.0283 57.0662 31.1176 61.1361C30.4746 62.0377 25.5701 68.5285 25.2511 68.4787L30.8634 75.1788L34.9504 73.0368C35.9772 76.0804 37.4076 79.8016 36.8793 82.7705C36.1965 86.6063 23.3721 140.521 23.3721 140.521C23.3721 140.521 66.6351 144.526 66.6351 135.709C66.6351 126.892 57.7732 88.0459 57.2448 81.1018C56.9857 77.6895 57.7383 74.2672 58.5058 70.8997C59.1239 72.9322 59.7818 75.5375 59.7818 75.5375" fill="#EC64A1"/>
<path d="M49.8882 60.1252C49.8882 60.1252 47.9543 61.1066 45.4971 61.1066C43.0399 61.1066 41.7041 60.1252 41.7041 60.1252V49.8584H49.8882V60.1252Z" fill="#AF7F48"/>
<path d="M39.0931 42.197C39.3374 41.9678 43.1054 39.3874 43.0307 40.2343C42.8811 42.0326 44.5907 40.6228 45.4829 41.0064C46.405 41.4 47.0878 42.9143 48.1146 43.4922C49.7992 44.4486 53.6421 46.0078 55.257 44.1547C55.9049 46.0277 58.5466 46.7002 59.8923 45.1261C62.3894 46.8696 65.2553 44.598 64.9463 41.933C66.4964 43.8309 71.1616 40.7025 69.148 37.9229C71.7946 38.0126 72.4924 34.2266 70.1 33.4296C72.0039 31.9501 70.8576 28.209 68.3455 28.1493C69.6564 26.6598 68.2359 24.0495 66.3419 23.8851C67.1393 22.306 65.7687 21.1603 64.1339 21.3645C64.9164 19.6708 64.418 16.2834 59.8524 17.3893C62.6087 12.9458 54.7536 8.95567 51.1101 11.0529C50.1432 7.0926 44.3116 7.95439 43.2649 10.2758C42.4226 9.0553 39.4121 8.82615 39.6265 10.7789C37.0496 8.56711 29.4088 11.4414 31.8212 14.9683C26.3236 15.1825 23.7916 20.5924 26.0096 22.1466C22.3262 21.6285 21.5537 25.6585 23.2034 27.9649C20.173 27.7757 19.1313 33.1257 21.5437 34.4458C19.565 37.6589 21.9225 39.2031 23.3978 38.8943C22.1667 40.847 24.3398 44.3888 26.9915 42.7997C26.2289 46.5906 30.4505 47.0091 31.1932 45.3204C32.9077 49.0465 37.6776 43.537 39.0981 42.202" fill="#311C13"/>
<path d="M56.6976 21.0651C54.2404 17.1497 51.7233 17.0252 47.6662 16.8359H43.2502C39.188 17.0252 36.671 17.1447 34.2138 21.0651C31.7565 24.9856 32.6886 26.0018 32.883 30.7292C33.0325 34.3009 31.1335 31.7952 32.4444 41.7332C33.7552 51.6663 41.4209 54.8544 45.4532 54.8544C49.4854 54.8544 56.578 52.1893 58.467 41.7332C60.356 31.2771 57.8838 34.3059 58.0284 30.7292C58.2228 26.0018 59.1498 24.9856 56.6976 21.0651Z" fill="#AF7F48"/>
<path d="M39.7155 39.1235C39.7155 40.4435 38.8133 41.5096 37.7068 41.5096C36.6003 41.5096 35.6982 40.4435 35.6982 39.1235C35.6982 37.8034 36.6003 36.7373 37.7068 36.7373C38.8133 36.7373 39.7155 37.8084 39.7155 39.1235Z" fill="#311C13"/>
<path d="M40.2436 34.8893C40.0741 34.8893 39.9047 34.8196 39.7851 34.6801C39.2169 34.0375 38.4493 33.893 37.901 33.8831C37.0437 33.8681 36.1516 34.1969 35.6731 34.695C35.4388 34.9391 35.0501 34.9491 34.8058 34.72C34.5616 34.4858 34.5466 34.0973 34.7859 33.8532C35.5036 33.096 36.7098 32.6427 37.921 32.6576C39.0374 32.6776 40.0243 33.106 40.6972 33.8681C40.9215 34.1222 40.9015 34.5107 40.6473 34.7349C40.5277 34.8395 40.3832 34.8893 40.2386 34.8893" fill="#301C13"/>
<path d="M51.9566 34.82C51.8221 34.82 51.6925 34.7802 51.5778 34.6905C51.3137 34.4813 51.2638 34.0977 51.4732 33.8287C51.9915 33.1711 52.9635 32.7328 54.0151 32.683C55.1266 32.6331 56.1484 33.0217 56.8761 33.7839C57.1103 34.028 57.1004 34.4165 56.8561 34.6506C56.6119 34.8848 56.2231 34.8748 55.9889 34.6307C55.3409 33.9532 54.5086 33.8835 54.07 33.9034C53.2824 33.9433 52.6694 34.282 52.4301 34.5859C52.3105 34.7403 52.1311 34.82 51.9467 34.82" fill="#301C13"/>
<path d="M55.9787 39.1235C55.9787 40.4435 55.0765 41.5096 53.97 41.5096C52.8635 41.5096 51.9614 40.4435 51.9614 39.1235C51.9614 37.8034 52.8635 36.7373 53.97 36.7373C55.0765 36.7373 55.9787 37.8034 55.9787 39.1235Z" fill="#311C13"/>
<path d="M64.9601 29.1305C64.7807 25.8677 62.0095 21.3644 59.3529 19.7853C59.0638 19.6109 58.6252 19.4615 58.1268 19.3619C57.738 16.3581 53.4217 13.2446 52.8634 16.2983C53.5413 12.5971 45.4369 11.9644 44.8638 15.7005C42.2919 13.1002 35.4884 13.8623 35.2342 17.6383C31.4562 15.3169 28.1267 20.0144 26.8109 22.9884C25.7692 25.3446 24.9917 28.2637 25.6247 30.8342C25.8689 31.8305 26.7112 31.5017 27.6034 32.0646C28.8594 32.8616 29.308 33.9028 30.6737 34.3212C33.5496 35.2079 35.6978 31.9052 36.3108 29.9226C36.3108 29.9226 40.2434 31.2775 42.0726 27.7307C44.8638 30.1766 48.7564 26.0121 48.5272 25.2649C50.5009 27.5066 52.8136 25.9972 54.9419 23.9697C54.0547 27.113 55.9786 28.6872 57.2296 28.3385C55.7443 30.1766 57.6981 33.2352 59.8413 32.1393C58.8196 34.7347 61.2718 38.1918 63.2256 36.7272C65.1695 35.2677 65.0897 31.3722 64.9651 29.1156" fill="#311C13"/>
<path d="M41.9833 55.9559L37.981 57.017C37.981 57.017 38.0956 63.5228 44.7496 63.5228C51.4035 63.5228 53.128 59.2288 53.128 56.8626L48.2385 55.7617" fill="#AF7F48"/>
<path d="M71.9734 104.58C71.9734 106.353 72.2076 107.494 72.2076 107.494C72.2076 107.494 74.0019 110.607 74.0318 110.727L75.7963 116.187C75.9308 116.665 75.6966 117.238 75.2779 117.457C74.8592 117.676 74.4057 117.462 74.2761 116.984L73.4337 113.925L74.1664 118.339C74.2611 118.921 73.9322 119.554 73.4287 119.743C72.9253 119.933 72.4369 119.609 72.3422 119.026L71.6095 114.587C71.6095 114.587 71.5946 114.587 71.5896 114.592L72.0681 119.997C72.1229 120.62 71.7391 121.243 71.2108 121.382C70.6824 121.527 70.2089 121.133 70.1541 120.52L69.6557 114.886C69.6557 114.886 69.6258 114.886 69.6108 114.886L69.7454 118.872C69.7653 119.479 69.3666 120.052 68.8532 120.152C68.3448 120.251 67.9112 119.838 67.8913 119.235C67.8913 119.235 67.657 112.002 67.5773 111.853C67.4427 111.599 66.1817 112.206 66.2016 114.617C66.2166 116.406 64.7213 115.534 64.6715 114.578C64.5967 113.178 64.9207 112.216 65.3095 111.469C65.9424 110.264 67.4377 109.068 67.4377 109.068C67.4377 109.068 67.2234 107.354 67.1636 104.953" fill="#AF7F48"/>
<path d="M45.6262 49.8687C43.9963 49.8687 42.1073 49.4702 41.0706 48.3244C40.8612 48.0903 40.8812 47.7366 41.1104 47.5224C41.3447 47.3132 41.7036 47.3281 41.9129 47.5623C42.6605 48.3892 44.3452 48.8425 46.2093 48.713C47.6448 48.6134 48.8659 48.175 49.2447 47.6221C49.4191 47.363 49.773 47.2983 50.0322 47.4726C50.2914 47.6519 50.3562 48.0006 50.1817 48.2597C49.5886 49.1215 48.1332 49.7143 46.2841 49.8438C46.0698 49.8587 45.8504 49.8637 45.6262 49.8637" fill="#5C381C"/>
</g>
</svg>
