<svg width="100" height="151" viewBox="0 0 100 151" fill="none" xmlns="http://www.w3.org/2000/svg">
<mask id="mask0_2345_803" style="mask-type:luminance" maskUnits="userSpaceOnUse" x="0" y="0" width="100" height="151">
<path d="M100 0.535156H0V150.535H100V0.535156Z" fill="white"/>
</mask>
<g mask="url(#mask0_2345_803)">
<path d="M59.6783 25.7984C59.4285 25.7984 59.189 25.8269 58.9547 25.8734C57.1443 18.0892 63.0466 17.4297 46.236 17.4297C28.2435 17.4297 35.3329 18.0814 33.52 25.8579C33.3037 25.8165 33.0822 25.7959 32.853 25.7959C31.0247 25.7959 29.5439 27.1769 29.5439 28.8811C29.5439 30.5854 30.9963 31.9354 32.7963 31.9638C32.7963 32.0724 32.7938 32.1836 32.7938 32.2922C32.7938 43.229 38.8119 52.0943 46.236 52.0943C53.6602 52.0943 59.6783 43.229 59.6783 32.2922C59.6783 32.1836 59.6783 32.075 59.6757 31.9664C59.6757 31.9664 59.6757 31.9664 59.6783 31.9664C61.5066 31.9664 62.9873 30.5854 62.9873 28.8811C62.9873 27.1769 61.5066 25.7959 59.6783 25.7959V25.7984Z" fill="#FAB58B"/>
<path d="M57.6692 20.9933C57.6692 21.5287 59.6186 28.2914 59.6186 28.2914L59.9148 25.7984C60.0925 25.6794 61.2744 26.0958 61.2744 26.0958C61.5706 19.0356 57.61 14.8797 57.61 14.8797C55.3053 9.89621 49.6915 9.06348 46.1481 9.06348C42.6047 9.06348 29.1315 15.353 29.1315 15.353C28.6577 15.7693 31.6139 18.5572 31.6139 18.5572C30.4912 21.6425 30.965 26.2717 30.965 26.2717C31.4981 26.0337 32.7367 25.7958 32.7367 25.7958C32.7367 25.9743 33.5041 27.694 33.5041 27.694C33.5041 27.3966 34.6269 20.9882 34.6269 20.9882L34.0372 19.1494C45.0871 21.9373 57.8315 18.94 57.8315 18.94L57.6718 20.9908L57.6692 20.9933Z" fill="#7B3A11"/>
<path d="M40.3491 30.3703C41.1072 30.3703 41.7217 29.5528 41.7217 28.5445C41.7217 27.5361 41.1072 26.7188 40.3491 26.7188C39.5911 26.7188 38.9766 27.5361 38.9766 28.5445C38.9766 29.5528 39.5911 30.3703 40.3491 30.3703Z" fill="#0D0E1A"/>
<path d="M51.6919 30.3703C52.4499 30.3703 53.0644 29.5528 53.0644 28.5445C53.0644 27.5361 52.4499 26.7188 51.6919 26.7188C50.9339 26.7188 50.3193 27.5361 50.3193 28.5445C50.3193 29.5528 50.9339 30.3703 51.6919 30.3703Z" fill="#0D0E1A"/>
<path d="M52.7091 36.7686C52.7091 39.8616 50.6052 43.3089 46.2867 43.3089C41.9681 43.3089 39.8643 39.859 39.8643 36.7686H52.7116H52.7091Z" fill="#F38177"/>
<path d="M23.7701 20.1421C23.3658 20.9051 27.6997 15.4664 36.087 16.6871C44.4742 17.9077 51.955 19.8939 55.6503 15.0242C55.6503 15.0242 52.2022 8.64413 41.4021 10.4907C30.6019 12.3372 25.3409 17.1707 23.7701 20.1396V20.1421Z" fill="#EB482B"/>
<path d="M31.6115 18.5589L31.5986 16.6426C31.5986 16.6426 26.7316 16.9348 23.7676 20.139C23.7676 20.139 29.6029 21.0494 31.0681 20.8244" fill="#D43318"/>
<path d="M60.8031 21.4015C60.8031 21.4015 62.0186 17.5508 61.3465 13.9146C60.4194 8.90787 57.2133 5.53037 50.2785 3.16146C44.42 1.15979 37.171 4.32006 34.0165 7.51135C31.1503 10.4078 32.1031 13.2836 32.1031 13.2836C32.1031 13.2836 48.0948 5.82778 55.6502 15.0267C60.1155 19.7722 61.125 21.7222 61.125 21.7222" fill="#D43318"/>
<path d="M37.1689 50.3252L45.8652 51.3907L54.7443 50.4804L51.6928 105.41H42.8059L37.1689 50.3252Z" fill="white"/>
<path d="M51.234 60.4111H42.4785V63.5998H51.234V60.4111Z" fill="#EE4536"/>
<path d="M51.234 66.9619H42.4785V70.1506H51.234V66.9619Z" fill="#EE4536"/>
<path d="M51.234 73.5117H42.4785V76.7004H51.234V73.5117Z" fill="#EE4536"/>
<path d="M51.234 79.8125H42.4785V83.0012H51.234V79.8125Z" fill="#EE4536"/>
<path d="M51.234 86.3633H42.4785V89.552H51.234V86.3633Z" fill="#EE4536"/>
<path d="M51.234 92.6572H42.4785V95.8459H51.234V92.6572Z" fill="#EE4536"/>
<path d="M51.234 99.5527H42.4785V102.741H51.234V99.5527Z" fill="#EE4536"/>
<path d="M26.549 80.4739C26.549 80.4739 24.1953 103.718 27.3086 104.89C30.422 106.061 62.3306 105.919 64.8516 104.89C67.3727 103.86 64.5401 71.9474 64.5401 71.9474C64.5401 71.9474 73.7076 88.659 79.9059 89.0521C82.5094 86.8745 93.9327 68.9319 94.9061 63.2761L88.1258 62.9967L79.1179 74.5258C79.1179 74.5258 76.1256 67.6336 72.6749 62.3449C69.5161 57.502 66.5787 54.5651 63.8628 53.534C62.4336 52.991 57.855 51.328 54.7416 50.4797C54.6644 52.4814 53.8738 56.2728 50.315 56.1874L50.4411 103.457H43.4033L42.6282 56.3297C39.8599 55.8435 37.4804 52.0987 37.1096 50.3271C33.9165 51.2168 28.622 52.7944 27.3807 53.6866C27.3807 53.6866 20.3892 54.602 18.1076 62.1587C15.8286 69.7154 8.98647 85.9719 10.1273 88.0331C11.2681 90.0942 19.0192 86.4298 19.0192 86.4298L26.3146 71.7741L26.5438 80.4739H26.549Z" fill="#F5C861"/>
<path d="M65.0109 103.86L64.0993 163.166L48.7643 162.985L47.4561 121.689L45.8595 121.462H45.7282L44.1342 121.689L42.8363 162.638L27.4885 162.483L26.582 104.321" fill="#71A8D5"/>
<path d="M64.8515 103.455H26.6621V105.744H64.8515V103.455Z" fill="#6393BB"/>
<path d="M27.4043 118.886L35.5546 109.211L32.8198 105.947L27.4043 113.046V118.886Z" fill="#6393BB"/>
<path d="M64.2822 119L56.1318 109.325L58.8666 106.062L64.2822 113.16V119Z" fill="#6393BB"/>
<path d="M26.3196 71.774L19.0242 86.4297C19.0242 86.4297 11.273 90.0942 10.1322 88.0331C8.99141 85.9719 15.831 69.7154 18.1126 62.1587C20.3916 54.602 27.3857 53.6865 27.3857 53.6865L26.3221 71.7766L26.3196 71.774Z" fill="#EEEEEC"/>
<path d="M26.407 71.6815L19.1091 86.3398L32.8192 105.95L27.8852 112.418C25.8328 110.357 11.3553 90.0043 10.2171 87.9432C9.07635 85.882 15.9185 69.6204 18.2001 62.0636C20.4816 54.5069 27.4732 53.5889 27.4732 53.5889L26.4096 71.6815H26.407Z" fill="#F5C861"/>
<path d="M94.0722 63.2115C94.2654 61.0314 94.3941 62.49 94.4868 62.2727C94.8448 61.4323 94.4868 62.2727 94.9658 61.6728C95.4448 61.0728 97.5744 57.8168 97.953 55.3134C98.2079 53.635 97.3555 53.873 97.3555 53.873C97.4457 51.6541 95.5632 52.329 95.5632 52.329C95.7873 50.5291 93.892 50.8756 93.892 50.8756C93.892 50.8756 95.1795 47.5033 94.9684 45.8378C94.7289 43.9629 93.1761 45.5973 93.1761 45.5973C93.1761 45.5973 91.3838 51.5972 91.1443 52.3161C90.9048 53.0351 90.5468 52.1066 90.5468 52.1066L89.5915 45.2378C87.8738 43.2879 87.6112 45.8197 87.6112 45.8197L88.5151 52.9161C88.5151 52.9161 87.7992 53.5161 87.2017 54.1161C86.6043 54.716 86.7614 57.2453 87.3202 58.0754C88.3631 59.6194 88.2756 58.5565 88.2756 60.2349C88.2756 61.9133 89.2309 62.0348 89.2309 62.0348C89.2309 62.0348 89.2335 62.0038 89.1331 63.0382L94.0722 63.2115Z" fill="#FAB58B"/>
<path d="M35.5542 50.7695C35.5542 50.7695 34.6298 53.86 40.3466 57.8245L41.7191 103.457" stroke="#DBB353" stroke-width="2" stroke-miterlimit="10"/>
<path d="M56.1327 50.8789C56.1327 50.8789 57.4846 55.4952 51.9893 57.9106V103.455" stroke="#DBB353" stroke-width="2" stroke-miterlimit="10"/>
</g>
</svg>
