<svg width="100" height="151" viewBox="0 0 100 151" fill="none" xmlns="http://www.w3.org/2000/svg">
<mask id="mask0_2345_779" style="mask-type:luminance" maskUnits="userSpaceOnUse" x="13" y="10" width="73" height="141">
<path d="M86 10H13V151H86V10Z" fill="white"/>
</mask>
<g mask="url(#mask0_2345_779)">
<path d="M34.3254 51.3453C32.5831 44.3631 30.3993 32.0104 34.4929 25.1159C40.4192 15.1306 42.4567 11.9413 53.0113 12.0557C63.5658 12.1701 68.7527 19.163 69.4921 23.7221C70.2316 28.2812 71.7637 46.0308 71.4977 50.2308C71.2583 53.9813 35.1047 54.4734 34.3227 51.348L34.3254 51.3453Z" fill="#000015"/>
<path d="M51.7851 51.4277C59.3154 51.4277 65.4199 43.9657 65.4199 34.7607C65.4199 25.5557 59.3154 18.0938 51.7851 18.0938C44.2549 18.0938 38.1504 25.5557 38.1504 34.7607C38.1504 43.9657 44.2549 51.4277 51.7851 51.4277Z" fill="#F9AF86"/>
<path d="M58.0067 41.4424C58.0067 43.9826 56.2698 46.8181 52.7055 46.8181C49.1412 46.8181 47.4043 43.9826 47.4043 41.4424H58.0067Z" fill="#F38077"/>
<path d="M46.5798 34.5666C47.5332 34.5666 48.3061 33.5734 48.3061 32.3483C48.3061 31.1231 47.5332 30.1299 46.5798 30.1299C45.6264 30.1299 44.8535 31.1231 44.8535 32.3483C44.8535 33.5734 45.6264 34.5666 46.5798 34.5666Z" fill="#000015"/>
<path d="M56.9929 33.8479C57.9463 33.8479 58.7192 32.8547 58.7192 31.6295C58.7192 30.4043 57.9463 29.4111 56.9929 29.4111C56.0395 29.4111 55.2666 30.4043 55.2666 31.6295C55.2666 32.8547 56.0395 33.8479 56.9929 33.8479Z" fill="#000015"/>
<path d="M62.6428 22.8145C62.6428 22.8145 44.3692 30.1719 37.2991 30.1293C37.2991 30.1293 34.7456 24.0168 39.342 21.2399C43.9383 18.4629 58.9376 12.0738 62.6428 22.8145Z" fill="#000015"/>
<path d="M38.1716 33.848C38.1716 33.848 40.9246 17.5667 52.7054 17.6332C64.4862 17.6997 65.4198 31.6297 65.4198 31.6297C65.4198 31.6297 65.2629 14.7073 51.8436 15.4308C38.427 16.1569 38.1689 33.8454 38.1689 33.8454L38.1716 33.848Z" fill="#8BC6CA"/>
<path d="M47.2689 50.2627C47.2689 50.2627 46.9976 55.1516 45.0958 55.6942C45.0958 55.6942 32.8761 55.9656 30.4316 60.0406C30.4316 60.0406 27.9579 66.1584 25.564 77.9471C25.564 77.9471 24.0159 88.7943 24.5 93.7976C24.9841 98.8009 42.6167 102.19 42.6167 102.19L47.6732 105.182C47.6732 105.182 32.6367 92.5155 31.5488 91.7016C31.5488 91.7016 34.7779 76.0639 34.7779 74.7073L37.4937 96.1622C37.4937 96.1622 53.1553 116.205 52.884 119.192L53.69 118.628C53.4186 115.641 66.822 96.1622 66.822 96.1622L69.5377 74.7073C69.5377 76.0639 72.6685 91.4276 72.6685 91.4276C71.5832 92.2415 71.3385 102.352 71.3385 102.352C71.3385 102.352 75.9747 100.564 77.4776 96.0957C78.9805 91.6297 76.8578 75.1116 76.8578 75.1116C75.1741 63.408 72.6711 60.1283 72.6711 60.1283C70.2267 56.056 59.2199 55.6969 59.2199 55.6969C57.3181 55.1543 57.0468 50.2654 57.0468 50.2654" fill="#F9AF86"/>
<path d="M47.7746 146.732L46.1653 190.459L40.8402 190.262L37.6563 146.687L35.8076 125.977L49.6392 125.873L47.7746 146.732Z" fill="#F9AF86"/>
<path d="M67.5504 146.645L64.0899 190.699H58.1928L57.2166 146.387L56.0596 126.121L68.8059 125.632L67.5504 146.645Z" fill="#F9AF86"/>
<path d="M38.6638 56.343L41.4513 55.9573L42.1908 66.1581H60.7225L59.6585 55.71L63.2148 55.8376L69.5401 74.7044C69.5401 74.7044 65.9758 94.9517 68.0931 107.794L34.8654 107.866C38.153 92.3025 34.7803 74.7018 34.7803 74.7018C36.8284 65.3548 38.7223 57.1623 38.6664 57.9602" fill="#8BC6CA"/>
<path d="M34.8632 105.741L68.0909 105.669C68.0909 105.669 71.9159 122.903 72.791 124.674C73.6634 126.448 53.8258 126.092 53.8258 126.092L52.8815 117.061L52.1554 126.121H31.1074C31.1074 126.121 34.8978 113.407 34.8659 105.741H34.8632Z" fill="black"/>
<path d="M77.8922 93.7975C78.3949 71.4329 73.8917 62.5967 73.8917 62.5967C49.8247 67.9059 28.8007 62.5967 28.8007 62.5967L29.2317 63.4957C24.8454 78.7158 24.2922 88.8527 24.4997 93.7975C24.7071 98.7423 34.7776 100.62 34.7776 100.62L33.054 107.868H70.2104C70.2104 107.868 71.3594 104.637 69.5401 100.242C67.718 95.851 68.8777 72.731 69.5401 74.7046C70.2024 76.6783 71.9553 93.7975 71.9553 93.7975H77.8949H77.8922ZM36.3017 92.6804L31.5484 91.6988L34.5887 76.133C36.4746 82.5647 36.3017 92.6804 36.3017 92.6804Z" fill="#F3ACBE"/>
<path d="M60.0127 87.9453L70.8306 85.4609V102.054L61.6219 106.727L60.0127 87.9453Z" fill="#161616"/>
<path d="M72.7906 98.9608C72.7906 101.012 71.6335 102.671 70.2078 102.671C68.7821 102.671 67.625 101.009 67.625 98.9608C67.625 96.9126 68.7395 93.7979 70.1652 93.7979C71.5909 93.7979 72.7879 96.9126 72.7879 98.9608H72.7906Z" fill="#F9AF86"/>
<path d="M43.5024 103.6C44.9729 103.6 46.165 101.071 46.165 97.9527C46.165 94.8339 44.9729 92.3057 43.5024 92.3057C42.0319 92.3057 40.8398 94.8339 40.8398 97.9527C40.8398 101.071 42.0319 103.6 43.5024 103.6Z" fill="#F9AF86"/>
<path d="M31.5488 91.6982L41.6991 93.7969L40.8399 100.532C40.8399 100.532 30.1284 102.064 24.8086 95.5019L31.5462 91.6982H31.5488Z" fill="#F9AF86"/>
</g>
</svg>
