<svg width="599" height="655" viewBox="0 0 599 655" fill="none" xmlns="http://www.w3.org/2000/svg">
<path d="M267.981 110.964C267.981 110.964 245.995 115.282 236.983 106.406C236.983 106.406 224.851 69.3765 239.12 45.3555C253.381 21.3345 258.286 13.6525 283.697 13.9312C309.108 14.2032 321.584 31.0331 323.369 42.0054C325.155 52.9777 324.849 96.0245 331.393 103.753C337.936 111.481 328.725 106.42 328.725 106.42C328.725 106.42 284.812 114.606 267.981 110.97V110.964Z" fill="#000015"/>
<path d="M280.743 108.662C298.868 108.662 313.561 90.7079 313.561 68.5605C313.561 46.4132 298.868 28.4592 280.743 28.4592C262.619 28.4592 247.926 46.4132 247.926 68.5605C247.926 90.7079 262.619 108.662 280.743 108.662Z" fill="#F9AF86"/>
<path d="M295.715 84.6409C295.715 90.7572 291.534 97.5768 282.953 97.5768C274.372 97.5768 270.191 90.7572 270.191 84.6409H295.715Z" fill="#F38077"/>
<path d="M268.207 68.0895C270.502 68.0895 272.362 65.7016 272.362 62.756C272.362 59.8103 270.502 57.4224 268.207 57.4224C265.913 57.4224 264.053 59.8103 264.053 62.756C264.053 65.7016 265.913 68.0895 268.207 68.0895Z" fill="#000015"/>
<path d="M293.273 66.3647C295.567 66.3647 297.427 63.9768 297.427 61.0312C297.427 58.0855 295.567 55.6976 293.273 55.6976C290.979 55.6976 289.119 58.0855 289.119 61.0312C289.119 63.9768 290.979 66.3647 293.273 66.3647Z" fill="#000015"/>
<path d="M306.871 39.8229C306.871 39.8229 262.891 57.5219 245.869 57.4224C245.869 57.4224 239.723 42.7152 250.786 36.035C261.849 29.3481 297.958 13.9776 306.871 39.8229Z" fill="#000015"/>
<path d="M246.041 66.4974C246.041 66.4974 242.564 47.1931 247.063 38.0119C251.563 28.8373 267.517 24.4391 270.583 23.6762L272.421 22.9133C272.421 22.9133 265.466 24.2534 261.172 1.88418C261.172 1.88418 274.671 -1.174 281.832 15.6493C281.832 15.6493 285.515 2.07656 301.058 1.6918C301.058 1.6918 298.197 11.2511 298.197 14.6874C298.197 14.6874 296.153 21.5667 291.242 22.3362C291.242 22.3362 309.446 25.3944 314.357 34.3765C319.268 43.3587 319.879 55.5981 315.585 65.7279C315.585 65.7279 319.879 53.3028 310.269 41.2624C300.653 29.2221 286.544 26.7344 286.544 26.7344C286.544 26.7344 280.405 25.9715 278.155 25.7791C278.155 25.7791 275.089 29.2221 273.861 29.7926C272.634 30.3631 254.841 36.6718 253.408 38.0119C251.974 39.3519 245.431 42.0253 246.041 66.4974Z" fill="#E3DC5A"/>
<path d="M269.866 105.862C269.866 105.862 269.216 117.624 264.637 118.931C264.637 118.931 235.224 119.581 229.337 129.386C229.337 129.386 218.878 135.92 220.186 163.364L218.878 218.252L246.984 279.018L260.708 273.79C260.708 273.79 243.062 219.559 240.447 217.596C240.447 217.596 239.796 167.935 239.796 164.671L246.333 216.289C246.333 216.289 284.035 264.516 283.378 271.701L285.323 270.341C284.672 263.156 316.932 216.289 316.932 216.289L323.469 164.671C323.469 167.935 322.819 217.596 322.819 217.596C320.204 219.553 302.557 273.79 302.557 273.79L316.282 279.018L344.387 218.252L343.08 163.364C344.387 135.92 333.928 129.386 333.928 129.386C328.048 119.588 298.629 118.931 298.629 118.931C294.056 117.624 293.399 105.862 293.399 105.862" fill="#F9AF86"/>
<path d="M246.367 216.295L239.83 164.678L220.219 163.371C218.911 135.927 229.371 129.393 229.371 129.393C235.25 119.594 264.67 118.938 264.67 118.938C264.67 118.938 282.071 128.776 298.662 118.938C298.662 118.938 328.075 119.588 333.961 129.393C333.961 129.393 344.42 135.927 343.113 163.371L323.502 164.678L316.965 216.295" fill="#E3DC5A"/>
<path d="M313.342 213.025L310.807 120.317C307.263 119.84 304.09 119.588 301.934 119.455L302.232 155.523L262.029 155.848L261.345 119.508C259.062 119.661 255.923 119.939 252.479 120.424L249.393 212.614L247.243 216.096H316.693L313.342 213.018V213.025Z" fill="#6B2774"/>
<path d="M317.324 216.687L316.726 216.143C316.74 216.189 316.779 216.375 316.846 216.687H317.324Z" fill="#1F8AA7"/>
<path d="M316.852 216.687C316.786 216.375 316.746 216.189 316.733 216.143C316.733 216.136 316.726 216.103 316.726 216.103H246.26C246.26 216.103 237.772 254.234 238.808 280.245C239.843 306.256 248.112 451.079 248.112 451.079H271.2L277.405 275.973H285.588L291.793 451.079H314.881C314.881 451.079 323.15 306.256 324.186 280.245C325.148 256.085 317.894 221.49 316.859 216.68L316.852 216.687Z" fill="#6B2774"/>
<path d="M302.551 168.917C302.551 182.808 292.822 194.072 280.816 194.072C268.811 194.072 259.082 182.808 259.082 168.917H302.551Z" fill="#864198"/>
<path d="M249.479 212.408L313.196 212.733L316.932 216.395H245.948" fill="#864198"/>
<path d="M275.228 455.935C275.228 455.935 268.446 456.273 260.077 456.273C251.709 456.273 244.926 455.935 244.926 455.935C244.926 455.935 242.405 442.734 260.077 442.734C277.75 442.734 275.228 455.935 275.228 455.935Z" fill="#864198"/>
<path d="M318.339 455.935C318.339 455.935 311.556 456.273 303.188 456.273C294.819 456.273 288.037 455.935 288.037 455.935C288.037 455.935 285.515 442.734 303.188 442.734C320.861 442.734 318.339 455.935 318.339 455.935Z" fill="#864198"/>
<path d="M37.2518 109.664C-1.98961 26.6216 39.5812 6.01041 51.1286 10.4418C51.1286 5.34703 59.5171 0.411478 71.5357 0.53752C97.9289 0.822773 110.897 18.3028 112.748 29.6997C113.438 33.9453 119.066 82.8033 97.0396 109.975C75.2123 134.507 38.4795 114.559 37.2584 109.657L37.2518 109.664Z" fill="#6D6D6D"/>
<path d="M68.463 98.9566C87.2912 98.9566 102.555 80.3047 102.555 57.2963C102.555 34.288 87.2912 15.6361 68.463 15.6361C49.6348 15.6361 34.3715 34.288 34.3715 57.2963C34.3715 80.3047 49.6348 98.9566 68.463 98.9566Z" fill="#F9AF86"/>
<path d="M84.0189 74.0002C84.0189 80.3488 79.6786 87.4337 70.7659 87.4337C61.8531 87.4337 57.5129 80.3488 57.5129 74.0002H84.0255H84.0189Z" fill="#F38077"/>
<path d="M55.4423 56.8054C57.8283 56.8054 59.7626 54.3254 59.7626 51.2662C59.7626 48.207 57.8283 45.727 55.4423 45.727C53.0562 45.727 51.122 48.207 51.122 51.2662C51.122 54.3254 53.0562 56.8054 55.4423 56.8054Z" fill="#000015"/>
<path d="M81.4904 55.0143C83.8764 55.0143 85.8107 52.5343 85.8107 49.4751C85.8107 46.4158 83.8764 43.9359 81.4904 43.9359C79.1043 43.9359 77.1701 46.4158 77.1701 49.4751C77.1701 52.5343 79.1043 55.0143 81.4904 55.0143Z" fill="#000015"/>
<path d="M53.2124 20.5185C53.2124 20.5185 56.2055 39.7964 69.8434 45.1167C69.8434 45.1167 62.1916 38.4696 64.1891 22.177C64.1891 22.177 71.5025 38.8013 85.8041 43.4516C100.106 48.1085 105.428 64.9186 105.428 64.9186C105.428 64.9186 100.437 16.1933 82.811 10.2096C65.1846 4.22591 30.2636 12.2064 33.5951 57.7474C33.5951 57.7474 46.2309 52.0954 47.5648 39.4647C48.8921 26.8339 53.2191 20.5185 53.2191 20.5185H53.2124Z" fill="#6D6D6D"/>
<path d="M57.1678 96.0444C57.1678 96.0444 56.4908 108.264 51.7325 109.617C51.7325 109.617 21.1716 110.294 15.0661 120.477C15.0661 120.477 8.88091 135.774 2.89482 165.235C2.89482 165.235 -0.974231 192.347 0.233605 204.852C1.44144 217.357 45.5341 225.828 45.5341 225.828L58.1831 233.304C58.1831 233.304 20.581 201.648 17.8667 199.611C17.8667 199.611 25.9366 160.525 25.9366 157.135L32.7257 210.763C32.7257 210.763 71.8874 260.861 71.2105 268.324L73.228 266.911C72.5511 259.442 102.74 210.756 102.74 210.756L112.854 157.128C112.854 160.525 120.685 198.921 120.685 198.921C119.039 200.155 111.892 208.554 92.1684 212.189L91.7835 221.463C91.7835 221.463 128.954 221.762 132.704 210.597C136.46 199.432 131.151 158.143 131.151 158.143C126.937 128.888 120.685 120.689 120.685 120.689C114.573 110.506 87.0517 109.617 87.0517 109.617C82.3 108.257 81.6165 96.0444 81.6165 96.0444" fill="#F9AF86"/>
<path d="M91.4451 109.922C91.4451 109.922 114.739 111.057 120.685 120.696C120.685 120.696 126.943 128.895 131.151 158.15C131.151 158.15 134.728 185.999 133.932 202.139C133.759 205.648 117.971 200.965 120.685 198.928C120.685 198.928 112.854 160.532 112.854 157.135C112.854 157.135 102.767 200.746 105.421 234.538C108.076 268.324 72.5511 259.448 73.228 266.918L71.2105 268.331C71.8874 260.861 24.2974 258.652 28.5115 234.711C32.7257 210.769 25.9366 157.142 25.9366 157.142C25.9366 160.538 17.8667 199.618 17.8667 199.618C17.8667 199.618 0.0146016 201.509 0.00796516 199.571C-0.0650359 186.005 2.90146 165.248 2.90146 165.248C8.88754 135.781 15.0727 120.49 15.0727 120.49C19.4793 113.146 36.6014 110.745 45.8062 109.982C45.8062 109.982 71.1508 123.754 91.4517 109.929L91.4451 109.922Z" fill="#771531"/>
<path d="M54.4402 337.176L50.4185 446.468L37.1058 445.977L34.4645 337.064L32.5001 285.3L59.099 285.035L54.4402 337.176Z" fill="#F9AF86"/>
<path d="M103.888 336.958L95.2411 447.072H80.4949L78.0527 336.314L75.1658 285.658L107.034 284.438L103.888 336.958Z" fill="#F9AF86"/>
<path d="M104.154 211.141C104.081 210.836 104.041 210.657 104.028 210.61C104.028 210.604 104.021 210.577 104.021 210.577H30.4096C30.4096 210.577 21.5433 247.673 22.625 272.974C23.7068 298.276 32.3474 439.158 32.3474 439.158H56.4643L62.9415 268.815H71.4893L77.9664 439.158H102.083C102.083 439.158 110.724 298.276 111.806 272.974C112.808 249.471 105.236 215.818 104.154 211.141Z" fill="#3A0C22"/>
<path d="M0.233605 204.859C0.233605 204.859 1.91263 214.491 23.72 220.163C45.5274 225.835 46.7353 224.674 46.7353 224.674L45.7995 212.952C45.7995 212.952 30.3498 209.555 17.86 199.618C18.3246 199.976 0.233605 204.859 0.233605 204.859Z" fill="#F9AF86"/>
<path d="M133.069 210.424C129.313 221.589 92.1485 221.291 92.1485 221.291L92.5334 212.017C98.4266 210.929 103.198 209.416 107.034 207.797" fill="#F9AF86"/>
<path d="M56.4776 204.063C56.4776 204.063 55.1503 209.602 56.0329 212.541C56.0329 212.541 50.9361 214.206 55.0906 226.611C55.0906 226.611 52.9271 227.055 52.9868 229.324C52.9868 229.324 52.7678 230.989 57.035 230.989H83.7534C85.6382 230.989 85.9169 229.769 85.8572 228.886C85.7974 228.004 83.4747 227.447 83.4747 227.447C83.4747 227.447 87.8548 216.202 83.03 212.766C83.03 212.766 84.0255 206.225 81.9748 204.348L56.4776 203.85" fill="#727071"/>
<path d="M69.777 154.866C83.249 154.866 94.8828 166.17 94.8828 181.959C94.8828 197.747 84.5763 208.885 69.777 208.554C54.9777 208.222 45.1757 197.747 45.1757 182.622C45.1757 167.497 55.1437 154.866 69.777 154.866Z" fill="#727071"/>
<path d="M58.6823 181.063C59.3879 179.841 58.6372 178.088 57.0057 177.146C55.3742 176.205 53.4796 176.432 52.7741 177.653C52.0685 178.875 52.8192 180.628 54.4507 181.57C56.0822 182.512 57.9768 182.285 58.6823 181.063Z" fill="#FFE4BF"/>
<path d="M85.2139 180.988C86.4094 179.533 86.4945 177.627 85.404 176.732C84.3134 175.837 82.4601 176.291 81.2646 177.747C80.0691 179.202 79.984 181.107 81.0746 182.003C82.1651 182.898 84.0184 182.444 85.2139 180.988Z" fill="#FFE4BF"/>
<path d="M54.6857 191.929C56.5 191.929 57.9708 190.07 57.9708 187.777C57.9708 185.483 56.5 183.624 54.6857 183.624C52.8715 183.624 51.4007 185.483 51.4007 187.777C51.4007 190.07 52.8715 191.929 54.6857 191.929Z" fill="#393836"/>
<path d="M83.6207 191.929C85.435 191.929 86.9057 190.07 86.9057 187.777C86.9057 185.483 85.435 183.624 83.6207 183.624C81.8064 183.624 80.3356 185.483 80.3356 187.777C80.3356 190.07 81.8064 191.929 83.6207 191.929Z" fill="#393836"/>
<path d="M47.7175 190.324C47.7175 190.324 57.5859 196.195 64.1228 187.777C64.1228 187.777 65.4501 196.089 69.3324 195.863C73.2147 195.638 74.542 187.777 74.542 187.777C74.542 187.777 80.183 193.873 90.3899 190.881C90.3899 190.881 96.1039 206.895 69.4983 206.895C45.2686 206.895 47.7108 190.331 47.7108 190.331L47.7175 190.324Z" fill="#FFE4BF"/>
<path d="M53.8164 161.182C53.8164 161.182 46.503 156.863 37.1854 184.121C34.5242 190.603 40.8421 206.225 42.8397 206.895C42.8397 206.895 48.1621 206.895 48.9917 198.749C49.8212 190.603 48.4939 171.656 49.8212 168.001C51.1485 164.346 53.8097 161.188 53.8097 161.188L53.8164 161.182Z" fill="#5B5B5B"/>
<path d="M85.4059 160.93C85.4059 160.93 91.392 166.164 90.3965 179.63C89.401 193.097 88.5648 204.394 94.385 206.889C96.0508 206.889 100.869 203.731 102.203 189.601C103.032 179.299 91.2261 156.691 85.4059 160.93Z" fill="#5B5B5B"/>
<path d="M66.0805 192.845C66.0805 192.845 67.2884 191.764 69.2395 191.724C71.1906 191.684 72.2325 192.845 72.2325 192.845C72.2325 192.845 70.5668 195.923 69.1532 195.963C67.7396 196.003 66.0739 192.845 66.0739 192.845H66.0805Z" fill="#353631"/>
<path d="M55.8139 204.408C55.8139 204.408 61.0103 208.441 69.2196 208.441C77.4289 208.441 83.9127 204.66 83.9127 204.66C83.9127 204.66 76.1414 206.597 69.6974 206.597C63.2534 206.597 55.8139 204.401 55.8139 204.401V204.408Z" fill="#E30C14"/>
<path d="M63.499 230.883C66.4311 230.883 68.8081 229.493 68.8081 227.778C68.8081 226.064 66.4311 224.674 63.499 224.674C60.5668 224.674 58.1898 226.064 58.1898 227.778C58.1898 229.493 60.5668 230.883 63.499 230.883Z" fill="#FFE4BF"/>
<path d="M75.1858 230.883C78.1179 230.883 80.4949 229.493 80.4949 227.778C80.4949 226.064 78.1179 224.674 75.1858 224.674C72.2536 224.674 69.8766 226.064 69.8766 227.778C69.8766 229.493 72.2536 230.883 75.1858 230.883Z" fill="#FFE4BF"/>
<path d="M69.8832 209.867V209.827C69.777 209.827 69.6841 209.834 69.5846 209.841C69.485 209.841 69.3855 209.827 69.2859 209.827V209.867C67.0295 210.159 66.1734 212.063 66.1734 213.595C66.1734 215.26 69.1333 218.524 69.1333 218.524V225.563H70.0359V218.524C70.0359 218.524 72.9957 215.254 72.9957 213.595C72.9957 212.063 72.1463 210.159 69.8832 209.867Z" fill="#FFE4BF"/>
<path d="M93.363 215.4C93.363 220.521 90.4695 224.674 86.9057 224.674C83.342 224.674 80.4485 220.521 80.4485 215.4C80.4485 210.278 83.2358 202.49 86.8062 202.49C90.3766 202.49 93.363 210.272 93.363 215.4Z" fill="#F9AF86"/>
<path d="M50.8499 227.699C54.5261 227.699 57.5062 221.379 57.5062 213.582C57.5062 205.786 54.5261 199.465 50.8499 199.465C47.1737 199.465 44.1935 205.786 44.1935 213.582C44.1935 221.379 47.1737 227.699 50.8499 227.699Z" fill="#F9AF86"/>
<path d="M60.0745 457.056C60.0745 457.056 53.0266 457.407 44.3395 457.407C35.6524 457.407 28.6045 457.056 28.6045 457.056C28.6045 457.056 25.9831 443.344 44.3395 443.344C62.6959 443.344 60.0745 457.056 60.0745 457.056Z" fill="black"/>
<path d="M104.864 457.056C104.864 457.056 97.8161 457.407 89.1289 457.407C80.4418 457.407 73.3939 457.056 73.3939 457.056C73.3939 457.056 70.7725 443.344 89.1289 443.344C107.485 443.344 104.864 457.056 104.864 457.056Z" fill="black"/>
<path d="M459.808 45.5346C460.432 45.5346 461.036 45.6009 461.62 45.727C466.146 26.3496 451.387 24.7111 493.429 24.7111C538.424 24.7111 520.698 26.3364 525.23 45.6938C525.768 45.5943 526.325 45.5346 526.896 45.5346C531.469 45.5346 535.172 48.9709 535.172 53.2165C535.172 57.4157 531.542 60.8189 527.036 60.8919C527.036 61.1638 527.042 61.4358 527.042 61.7078C527.042 88.9329 511.991 110.997 493.422 110.997C474.853 110.997 459.802 88.9263 459.802 61.7078C459.802 61.4358 459.802 61.1638 459.808 60.8919C459.808 60.8919 459.808 60.8919 459.802 60.8919C455.229 60.8919 451.526 57.4555 451.526 53.2099C451.526 48.9709 455.229 45.528 459.802 45.528L459.808 45.5346Z" fill="#FAB58B"/>
<path d="M520.472 7.89441C509.456 10.1831 503.111 6.37527 494.245 6.37527C485.379 6.37527 470.745 5.9507 464.985 18.3559C464.985 18.3559 455.083 28.698 455.82 46.271C455.82 46.271 458.773 45.2361 459.218 45.5346L459.954 51.7372C459.954 51.7372 464.832 34.9006 464.832 33.5672L466.113 31.451C466.113 31.451 471.004 46.8348 521.614 30.31L522.463 33.5672C522.463 33.5672 525.27 49.5215 525.27 50.2579C525.27 50.2579 527.188 45.9724 527.188 45.528C527.188 45.528 530.294 46.1184 531.621 46.7088C531.621 46.7088 532.803 35.1859 529.995 27.5039C529.995 27.5039 530.825 22.4158 527.693 19.2846C527.693 19.2846 531.495 14.913 525.795 13.2014C525.795 13.2014 523.565 7.23766 520.472 7.88114V7.89441Z" fill="#6D6D6D"/>
<path d="M508.155 56.9049C510.053 56.9049 511.593 54.8704 511.593 52.3608C511.593 49.8511 510.053 47.8166 508.155 47.8166C506.256 47.8166 504.717 49.8511 504.717 52.3608C504.717 54.8704 506.256 56.9049 508.155 56.9049Z" fill="#0D0E1A"/>
<path d="M479.777 56.9049C481.676 56.9049 483.215 54.8704 483.215 52.3608C483.215 49.8511 481.676 47.8166 479.777 47.8166C477.879 47.8166 476.34 49.8511 476.34 52.3608C476.34 54.8704 477.879 56.9049 479.777 56.9049Z" fill="#0D0E1A"/>
<path d="M477.236 84.2229C477.236 91.9181 486.069 95.9648 493.302 95.9648C499.375 95.9648 509.369 91.9248 509.369 84.2229H477.236Z" fill="#F38177"/>
<path d="M540.235 239.852L537.959 452.956L501.465 445.546L496.329 284.239L492.34 283.668H492.008L488.02 284.239L482.89 445.546L446.396 452.956L444.325 238.844" fill="#494343"/>
<path d="M446.701 455.616C446.701 443.967 454.871 431.104 464.952 431.104C475.032 431.104 483.202 443.967 483.202 455.616H446.701Z" fill="#C1B5AB"/>
<path d="M504.107 455.616C504.107 443.967 512.276 431.104 522.357 431.104C532.438 431.104 540.607 443.967 540.607 455.616H504.107Z" fill="#C1B5AB"/>
<path d="M538.304 243.083L540.202 182.304L540.773 160.644L559.023 197.124L549.069 241.451L556.083 244.768C561.213 239.64 562.142 212.056 563.224 206.292C564.512 199.432 562.069 162.522 556.362 143.715C550.661 124.908 538.112 115.621 538.112 115.621C535.006 113.405 521.766 109.478 513.783 107.262C511.5 106.632 504.724 110.811 504.087 110.685L492.287 110.599H492.055L480.255 110.685C479.625 110.811 472.842 106.632 470.559 107.262C462.576 109.478 449.336 113.405 446.23 115.621C446.23 115.621 428.743 117.903 423.042 136.71C417.342 155.516 400.233 195.989 403.086 201.117C405.582 205.608 426.679 236.429 435.214 247.733C436.435 249.345 436.866 251.454 437.51 252.091L447.491 243.255L444.332 238.207L425.325 197.124L443.576 160.644L444.146 182.304L446.044 243.083H538.311H538.304Z" fill="#FAB58B"/>
<path d="M433.992 247.726C426.619 238.592 405.728 205.88 403.08 201.111C400.226 195.983 417.335 155.51 423.036 136.703C428.736 117.896 446.223 115.614 446.223 115.614C449.329 113.398 463.445 111.09 471.429 108.874C473.712 108.244 478.589 107.673 479.22 107.547L492.048 110.586H492.28L504.312 107.309C504.943 107.435 510.869 109 513.152 109.637C521.136 111.853 535.006 113.398 538.112 115.614C538.112 115.614 549.334 122.686 555.035 141.499C560.736 160.306 565.189 192.095 562.335 197.223C559.481 202.351 567.226 242.094 562.096 247.222L551.345 247.123L547.509 200.096L540.766 160.644L540.196 182.304L539.545 244.323L446.031 243.083L444.133 182.304L443.562 160.644L425.312 197.124L444.83 237.736L433.986 247.726" fill="#F1E4D5"/>
<path d="M478.749 106.307L491.962 108.967L504.319 107.309L501.797 117.047L492.533 111.156L482.266 116.762L478.749 106.307Z" fill="#C1B5AB"/>
<path d="M488.637 118.181C488.637 118.181 490.92 215.891 491.915 224.866C491.915 224.866 496.05 131.675 495.194 117.279C495.194 117.279 488.776 112.052 488.637 118.181Z" fill="#16A1E4"/>
<path d="M504.087 110.672C504.717 110.798 511.5 106.619 513.783 107.249C521.766 109.465 535.006 113.392 538.112 115.607C538.112 115.607 553.097 121.246 558.798 140.053C564.498 158.86 564.77 205.396 564.77 205.396L565.846 247.521C565.846 247.521 550.343 247.547 546.686 247.746L546.195 233.258V202.742L540.78 160.638L540.209 182.297L540.249 269.704L443.688 270.845L444.14 182.297L443.569 160.638L425.319 197.117L444.591 237.225L434.364 248.224C429.234 243.096 405.927 206.238 403.08 201.111C400.226 195.983 417.335 155.51 423.036 136.703C428.736 117.896 446.223 115.614 446.223 115.614C449.329 113.398 462.569 109.471 470.553 107.255C472.836 106.625 479.611 110.805 480.249 110.679L492.911 195.803L504.087 110.679V110.672Z" fill="#494343"/>
<path d="M547.283 247.315C547.283 247.315 558.618 246.413 564.565 247.315V250.95H547.283V247.315Z" fill="white"/>
<path d="M436.421 249.849L434.364 246.247L443.177 236.469L446.091 240.495L436.421 249.849Z" fill="white"/>
<path d="M459.483 248.264C455.833 252.595 456.57 262.798 449.216 262.798C441.863 262.798 437.53 255.926 437.53 250.26C437.53 244.595 441.585 237.815 448.911 237.271C456.517 236.701 464.042 242.85 459.483 248.27V248.264Z" fill="#FAB58B"/>
<path d="M560.901 249.922C556.176 251.103 548.578 246.678 545.803 252.35C543.029 258.022 546.693 263.966 551.066 266.102C555.44 268.245 562.202 267.674 565.394 262.228C568.706 256.576 566.801 248.449 560.901 249.922Z" fill="#FAB58B"/>
<path d="M479.512 106.307L472.099 107.163C472.099 107.163 468.396 120.842 468.675 122.838L473.234 122.268L470.951 130.534L492.904 195.797L479.505 106.307H479.512Z" fill="#332F2F"/>
<path d="M513.298 107.023L504.319 107.309L492.911 195.797L510.305 129.107L508.878 120.842L512.588 120.556L513.298 107.023Z" fill="#332F2F"/>
<path d="M492.287 110.586L486.779 114.002C486.779 114.002 490.628 121.551 492.055 121.412C493.482 121.273 496.614 113.863 496.614 113.863L492.28 110.586L492.287 110.586Z" fill="#16A1E4"/>
<path d="M352.165 287.257L354.156 350.968H452.575L452.92 287.257L459.35 325.892C459.35 325.892 462.138 332.267 472.895 330.271C483.653 328.274 519.516 290.839 519.516 290.839L512.741 275.303L475.683 298.8L469.703 242.638C467.314 221.131 454.161 219.937 449.98 216.945C446.721 214.617 434.231 211.194 426.075 208.978C423.759 208.348 417.375 212.096 416.711 211.963L390.013 212.162C389.349 212.295 382.241 207.917 379.852 208.58C371.484 210.902 357.607 215.022 354.348 217.343C354.348 217.343 336.018 219.732 330.046 239.447C324.066 259.163 306.141 301.579 309.127 306.959C312.114 312.339 346.185 360.726 351.561 366.106L366.506 350.57L332.441 302.774L351.568 264.536L352.165 287.237V287.257Z" fill="#EEEEEC"/>
<path d="M439.01 144.597C438.359 144.597 437.722 144.67 437.112 144.796C432.367 124.483 447.836 122.765 403.77 122.765C356.605 122.765 375.193 124.47 370.435 144.756C369.871 144.65 369.287 144.591 368.683 144.591C363.892 144.591 360.009 148.193 360.009 152.644C360.009 157.095 363.812 160.611 368.537 160.691C368.537 160.976 368.53 161.261 368.53 161.547C368.53 190.079 384.305 213.211 403.77 213.211C423.235 213.211 439.01 190.079 439.01 161.547C439.01 161.261 439.01 160.976 439.003 160.697C439.003 160.697 439.003 160.697 439.01 160.697C443.801 160.697 447.683 157.095 447.683 152.644C447.683 148.193 443.801 144.591 439.01 144.591V144.597Z" fill="#FAB58B"/>
<path d="M433.747 132.059C433.747 133.452 438.857 151.105 438.857 151.105L439.633 144.604C440.098 144.292 443.197 145.38 443.197 145.38C443.974 126.958 433.594 116.118 433.594 116.118C427.555 103.116 412.842 100.947 403.544 100.947C394.247 100.947 384.027 105.75 372.26 106.519C360.494 107.289 354.76 100.482 354.76 100.482C353.678 106.984 359.093 109.929 359.093 109.929C354.601 111.939 351.501 109 351.501 109C352.118 115.661 358.934 117.359 358.934 117.359C357.693 118.44 353.512 118.135 353.512 118.135C354.753 121.538 365.438 125.724 365.438 125.724C362.498 133.777 363.732 145.851 363.732 145.851C365.126 145.234 368.378 144.61 368.378 144.61C368.378 145.075 370.389 149.566 370.389 149.566C370.389 148.79 373.329 132.073 373.329 132.073L371.782 127.27C400.744 134.547 434.158 126.719 434.158 126.719L433.74 132.066L433.747 132.059Z" fill="#0D0E1A"/>
<path d="M388.34 156.525C390.33 156.525 391.944 154.392 391.944 151.762C391.944 149.131 390.33 146.999 388.34 146.999C386.35 146.999 384.737 149.131 384.737 151.762C384.737 154.392 386.35 156.525 388.34 156.525Z" fill="#0D0E1A"/>
<path d="M418.078 156.525C420.068 156.525 421.682 154.392 421.682 151.762C421.682 149.131 420.068 146.999 418.078 146.999C416.088 146.999 414.475 149.131 414.475 151.762C414.475 154.392 416.088 156.525 418.078 156.525Z" fill="#0D0E1A"/>
<path d="M420.746 173.222C420.746 181.289 415.231 190.291 403.909 190.291C392.588 190.291 387.073 181.289 387.073 173.222H420.753H420.746Z" fill="#F38177"/>
<path d="M452.993 348.281L450.603 571.642L412.351 563.88L406.975 394.798L402.788 394.201H402.449L398.262 394.798L392.886 563.88L354.634 571.642L352.251 349.476" fill="#238BA6"/>
<path d="M354.952 574.434C354.952 562.228 363.513 548.742 374.078 548.742C384.644 548.742 393.205 562.221 393.205 574.434H354.952Z" fill="#156D89"/>
<path d="M415.125 574.434C415.125 562.228 423.686 548.742 434.251 548.742C444.817 548.742 453.378 562.221 453.378 574.434H415.125Z" fill="#156D89"/>
<path d="M452.575 347.22H352.464V353.197H452.575V347.22Z" fill="#156D89"/>
<path d="M354.408 387.481L375.777 362.239L368.603 353.728L354.408 372.249V387.481Z" fill="#156D89"/>
<path d="M451.081 387.779L429.719 362.537L436.886 354.026L451.081 372.548V387.779Z" fill="#156D89"/>
<path d="M379.328 206.842L403.697 209.462L426.082 207.2L411.13 217.708L403.584 212.255L396.609 218.173L379.328 206.842Z" fill="#D4D9D8"/>
<path d="M599.001 201.94L529.405 189.044L510.597 288.697L580.194 301.593L599.001 201.94Z" fill="white"/>
<path d="M587.314 236.911L526.851 225.709L526.399 228.142L586.863 239.344L587.314 236.911Z" fill="#6DB4BE"/>
<path d="M586.238 242.694L525.774 231.493L525.323 233.926L585.787 245.127L586.238 242.694Z" fill="#6DB4BE"/>
<path d="M585.175 248.48L524.711 237.278L524.26 239.711L584.724 250.913L585.175 248.48Z" fill="#6DB4BE"/>
<path d="M584.098 254.263L523.634 243.062L523.183 245.495L583.647 256.696L584.098 254.263Z" fill="#6DB4BE"/>
<path d="M583.022 260.047L522.558 248.845L522.107 251.278L582.571 262.48L583.022 260.047Z" fill="#6DB4BE"/>
<path d="M581.952 265.839L521.488 254.637L521.037 257.07L581.501 268.272L581.952 265.839Z" fill="#6DB4BE"/>
<path d="M580.882 271.623L520.418 260.421L519.967 262.854L580.431 274.056L580.882 271.623Z" fill="#6DB4BE"/>
<path d="M579.806 277.407L519.342 266.205L518.891 268.638L579.355 279.84L579.806 277.407Z" fill="#6DB4BE"/>
<path d="M566.556 235.54L567.239 235.739C567.239 236.309 567.16 236.747 566.98 237.059C566.801 237.371 566.542 237.557 566.197 237.616C565.773 237.696 565.381 237.53 565.023 237.119C564.664 236.708 564.412 236.104 564.266 235.308C564.113 234.465 564.133 233.782 564.326 233.271C564.518 232.754 564.837 232.455 565.288 232.376C565.68 232.303 566.031 232.429 566.343 232.754C566.529 232.946 566.695 233.231 566.841 233.629L566.244 233.988C566.157 233.729 566.038 233.537 565.892 233.411C565.746 233.284 565.587 233.231 565.414 233.265C565.175 233.311 565.009 233.477 564.91 233.775C564.81 234.074 564.817 234.518 564.923 235.122C565.043 235.766 565.195 236.203 565.394 236.449C565.593 236.694 565.806 236.794 566.038 236.754C566.211 236.721 566.343 236.608 566.436 236.416C566.529 236.223 566.569 235.931 566.556 235.553V235.54Z" fill="#EC1C58"/>
<path d="M568.082 237.185L567.16 232.124L569.542 231.692L569.695 232.548L567.963 232.86L568.168 233.981L569.781 233.689L569.934 234.545L568.321 234.837L568.573 236.217L570.365 235.892L570.518 236.747L568.075 237.192L568.082 237.185Z" fill="#EC1C58"/>
<path d="M571.075 236.641L570.153 231.58L571.52 231.334C571.865 231.274 572.124 231.274 572.29 231.334C572.456 231.394 572.615 231.533 572.754 231.752C572.893 231.971 572.986 232.223 573.039 232.522C573.106 232.9 573.093 233.231 573 233.503C572.907 233.775 572.721 233.974 572.449 234.087C572.615 234.193 572.754 234.313 572.874 234.452C572.993 234.591 573.166 234.843 573.391 235.208L573.962 236.124L573.185 236.263L572.515 235.248C572.276 234.883 572.117 234.658 572.037 234.565C571.958 234.472 571.878 234.412 571.805 234.392C571.732 234.372 571.619 234.366 571.467 234.392L571.334 234.419L571.719 236.535L571.068 236.654L571.075 236.641ZM571.195 233.603L571.672 233.517C571.984 233.457 572.177 233.404 572.243 233.351C572.309 233.298 572.363 233.211 572.389 233.105C572.416 232.999 572.416 232.867 572.389 232.714C572.356 232.541 572.303 232.409 572.23 232.316C572.157 232.223 572.057 232.17 571.951 232.163C571.898 232.163 571.739 232.183 571.473 232.23L570.969 232.323L571.201 233.61L571.195 233.603Z" fill="#EC1C58"/>
<path d="M575.037 235.918L574.274 231.712L573.318 231.885L573.166 231.029L575.721 230.565L575.873 231.42L574.924 231.593L575.687 235.799L575.037 235.918Z" fill="#EC1C58"/>
<path d="M577.035 235.56L576.112 230.498L576.763 230.379L577.685 235.44L577.035 235.56Z" fill="#EC1C58"/>
<path d="M578.302 235.328L577.38 230.266L579.583 229.868L579.736 230.724L578.183 231.009L578.402 232.21L579.742 231.964L579.895 232.82L578.554 233.066L578.946 235.215L578.296 235.334L578.302 235.328Z" fill="#EC1C58"/>
<path d="M581.023 234.83L580.101 229.769L580.751 229.649L581.674 234.711L581.023 234.83Z" fill="#EC1C58"/>
<path d="M582.284 234.605L581.362 229.543L583.744 229.112L583.897 229.968L582.165 230.279L582.37 231.4L583.983 231.109L584.136 231.964L582.523 232.256L582.775 233.636L584.567 233.311L584.72 234.167L582.277 234.611L582.284 234.605Z" fill="#EC1C58"/>
<path d="M585.37 236.601L564.983 240.31C563.271 240.621 561.625 239.48 561.313 237.769L560.616 233.954C560.304 232.243 561.446 230.598 563.158 230.286L583.545 226.578C585.257 226.266 586.903 227.407 587.215 229.118L587.912 232.933C588.224 234.644 587.082 236.29 585.37 236.601ZM563.324 231.175C562.103 231.4 561.286 232.575 561.512 233.795L562.209 237.61C562.434 238.83 563.609 239.646 564.83 239.421L585.217 235.712C586.439 235.487 587.255 234.313 587.029 233.092L586.332 229.278C586.107 228.057 584.932 227.241 583.711 227.467L563.324 231.175Z" fill="#EC1C58"/>
<path d="M548.239 215.128L548.325 214.67L549.991 214.975L549.719 216.428C549.427 216.587 549.135 216.687 548.843 216.74C548.551 216.793 548.266 216.793 547.98 216.74C547.595 216.667 547.257 216.521 546.978 216.295C546.693 216.07 546.5 215.791 546.394 215.446C546.295 215.101 546.275 214.743 546.348 214.358C546.421 213.973 546.567 213.635 546.786 213.337C547.005 213.038 547.283 212.832 547.609 212.726C547.94 212.62 548.299 212.607 548.69 212.68C548.976 212.733 549.221 212.826 549.434 212.958C549.646 213.091 549.799 213.257 549.905 213.443C550.004 213.628 550.064 213.861 550.084 214.139L549.593 214.179C549.573 213.967 549.526 213.801 549.46 213.668C549.394 213.536 549.288 213.423 549.135 213.323C548.982 213.224 548.81 213.158 548.611 213.118C548.372 213.071 548.159 213.071 547.974 213.118C547.788 213.158 547.628 213.23 547.502 213.323C547.376 213.423 547.27 213.536 547.184 213.668C547.038 213.894 546.938 214.146 546.885 214.431C546.819 214.783 546.826 215.088 546.905 215.34C546.985 215.592 547.124 215.804 547.336 215.964C547.542 216.123 547.781 216.222 548.04 216.269C548.266 216.309 548.491 216.309 548.724 216.262C548.956 216.216 549.135 216.156 549.261 216.076L549.394 215.347L548.239 215.134V215.128Z" fill="#6B2774"/>
<path d="M549.951 217.038L552.188 213.396L552.745 213.502L553.621 217.722L553.031 217.615L552.792 216.342L551.152 216.037L550.502 217.144L549.951 217.045V217.038ZM551.385 215.639L552.712 215.884L552.506 214.723C552.44 214.371 552.4 214.08 552.38 213.861C552.281 214.1 552.168 214.338 552.028 214.571L551.385 215.639Z" fill="#6B2774"/>
<path d="M554.046 217.795L554.776 213.874L556.515 214.199C556.866 214.265 557.125 214.345 557.291 214.451C557.457 214.557 557.583 214.71 557.656 214.902C557.729 215.101 557.749 215.307 557.709 215.526C557.656 215.804 557.523 216.023 557.311 216.183C557.092 216.342 556.793 216.408 556.409 216.395C556.535 216.488 556.628 216.567 556.687 216.647C556.813 216.813 556.926 217.012 557.019 217.251L557.504 218.445L556.853 218.325L556.488 217.41C556.382 217.144 556.289 216.945 556.216 216.799C556.143 216.654 556.07 216.554 556.004 216.488C555.937 216.421 555.864 216.375 555.785 216.342C555.725 216.315 555.632 216.295 555.499 216.269L554.895 216.156L554.57 217.901L554.053 217.801L554.046 217.795ZM554.975 215.705L556.09 215.911C556.329 215.957 556.515 215.964 556.661 215.937C556.807 215.911 556.92 215.851 557.012 215.758C557.099 215.665 557.158 215.552 557.185 215.426C557.218 215.241 557.185 215.075 557.066 214.929C556.953 214.783 556.754 214.683 556.462 214.63L555.221 214.398L554.982 215.698L554.975 215.705Z" fill="#6B2774"/>
<path d="M557.57 218.451L559.806 214.809L560.364 214.915L561.24 219.135L560.649 219.022L560.41 217.748L558.771 217.443L558.121 218.551L557.57 218.451ZM559.003 217.052L560.331 217.297L560.125 216.136C560.059 215.785 560.019 215.493 559.999 215.274C559.899 215.519 559.786 215.751 559.647 215.984L559.003 217.052Z" fill="#6B2774"/>
<path d="M561.651 219.208L562.381 215.287L562.912 215.386L564.405 218.849L564.976 215.771L565.474 215.864L564.744 219.785L564.213 219.685L562.726 216.222L562.156 219.307L561.658 219.214L561.651 219.208Z" fill="#6B2774"/>
<path d="M566.615 220.123L567.259 216.66L565.965 216.421L566.051 215.957L569.164 216.534L569.078 216.998L567.777 216.76L567.133 220.223L566.615 220.123Z" fill="#6B2774"/>
<path d="M569.051 220.581L569.781 216.66L570.299 216.76L569.569 220.68L569.051 220.581Z" fill="#6B2774"/>
<path d="M570.498 220.846L571.228 216.926L574.068 217.45L573.982 217.914L571.666 217.483L571.44 218.683L573.61 219.088L573.524 219.546L571.354 219.141L571.108 220.475L573.517 220.919L573.431 221.383L570.504 220.839L570.498 220.846Z" fill="#6B2774"/>
<path d="M550.641 222.836L549.845 218.63L550.409 218.737L550.9 221.775C550.94 222.02 550.967 222.246 550.987 222.458C551.086 222.252 551.199 222.053 551.318 221.854L552.904 219.201L553.435 219.3L551.172 222.936L550.641 222.836Z" fill="#6B2774"/>
<path d="M553.263 223.32L553.993 219.4L554.51 219.493L553.781 223.413L553.263 223.32Z" fill="#6B2774"/>
<path d="M554.756 222.292L555.254 222.339C555.241 222.538 555.267 222.71 555.327 222.85C555.387 222.989 555.499 223.115 555.665 223.228C555.831 223.34 556.024 223.413 556.243 223.453C556.442 223.493 556.621 223.493 556.787 223.46C556.946 223.427 557.079 223.367 557.172 223.281C557.265 223.194 557.324 223.088 557.344 222.962C557.364 222.836 557.351 222.723 557.298 222.617C557.245 222.511 557.139 222.412 556.986 222.319C556.886 222.259 556.667 222.153 556.322 222C555.977 221.848 555.738 221.715 555.612 221.616C555.44 221.483 555.327 221.337 555.26 221.171C555.194 221.012 555.181 220.839 555.214 220.66C555.247 220.461 555.34 220.289 555.486 220.136C555.632 219.984 555.818 219.884 556.05 219.838C556.282 219.791 556.528 219.791 556.793 219.838C557.085 219.891 557.331 219.984 557.537 220.123C557.742 220.262 557.888 220.428 557.975 220.634C558.061 220.839 558.088 221.058 558.054 221.291L557.55 221.237C557.57 220.985 557.51 220.78 557.384 220.627C557.251 220.475 557.039 220.368 556.734 220.309C556.422 220.249 556.183 220.269 556.017 220.355C555.851 220.441 555.752 220.567 555.725 220.733C555.698 220.873 555.725 220.999 555.811 221.111C555.898 221.218 556.136 221.364 556.541 221.536C556.946 221.708 557.218 221.848 557.364 221.947C557.57 222.093 557.716 222.259 557.796 222.438C557.875 222.617 557.895 222.816 557.855 223.029C557.815 223.234 557.723 223.42 557.57 223.586C557.417 223.745 557.218 223.858 556.973 223.924C556.727 223.984 556.468 223.991 556.19 223.937C555.831 223.871 555.546 223.765 555.327 223.619C555.108 223.473 554.948 223.281 554.849 223.049C554.749 222.816 554.723 222.564 554.763 222.306L554.756 222.292Z" fill="#6B2774"/>
<path d="M557.922 224.183L560.158 220.541L560.716 220.647L561.592 224.866L561.001 224.76L560.762 223.486L559.123 223.181L558.472 224.289L557.922 224.19V224.183ZM559.355 222.783L560.682 223.029L560.477 221.868C560.41 221.516 560.37 221.224 560.351 221.005C560.251 221.251 560.138 221.483 559.999 221.715L559.355 222.783Z" fill="#6B2774"/>
<path d="M561.99 224.939L562.72 221.019L563.237 221.111L562.594 224.574L564.525 224.933L564.439 225.397L561.983 224.946L561.99 224.939Z" fill="#6B2774"/>
<path d="M565.069 225.51L565.799 221.589L568.64 222.113L568.553 222.577L566.237 222.146L566.011 223.347L568.182 223.752L568.095 224.209L565.925 223.805L565.68 225.138L568.089 225.583L568.002 226.047L565.076 225.503L565.069 225.51Z" fill="#6B2774"/>
<path d="M367.807 298.216C367.807 298.216 366.613 282.68 368.703 277.605L371.092 278.202C371.092 278.202 367.508 291.941 369.599 298.813L367.807 298.216Z" fill="#59A345"/>
<path d="M386.336 262.069C386.336 262.069 386.635 280.889 368.703 282.083C368.703 282.083 370.793 264.755 386.336 262.069Z" fill="#6CAE44"/>
<path d="M368.703 282.083C368.703 282.083 358.244 271.926 372.884 256.987C372.884 256.987 378.565 274.315 368.703 282.083Z" fill="#80C24C"/>
<path d="M384.843 313.746C393.427 313.746 400.385 308.798 400.385 302.694C400.385 296.59 393.427 291.642 384.843 291.642C376.259 291.642 369.3 296.59 369.3 302.694C369.3 308.798 376.259 313.746 384.843 313.746Z" fill="#753524"/>
<path d="M365.119 308.97C371.061 308.97 375.877 305.893 375.877 302.097C375.877 298.301 371.061 295.224 365.119 295.224C359.178 295.224 354.362 298.301 354.362 302.097C354.362 305.893 359.178 308.97 365.119 308.97Z" fill="#753524"/>
<path d="M395.601 362.736L359.14 362.139L352.563 302.992H403.962L395.601 362.736Z" fill="#EA8728"/>
<path d="M417.116 301.798H340.611V308.97H417.116V301.798Z" fill="#F79644"/>
<path d="M361.728 350.789L371.888 359.254L382.945 362.239C382.945 362.239 385.991 362.418 385.931 364.329C385.533 378.266 366.951 379.354 364.117 378.366C354.952 375.181 348.575 356.759 348.575 356.759L361.721 350.782L361.728 350.789Z" fill="#FAB58B"/>
<path d="M351.568 264.556L332.441 302.793L366.506 350.59L351.561 366.126C346.179 360.746 312.114 312.359 309.128 306.979C306.141 301.599 324.073 259.183 330.046 239.467C336.025 219.752 354.348 217.363 354.348 217.363L351.561 264.563L351.568 264.556Z" fill="#EEEEEC"/>
<path d="M519.118 244.044C519.118 244.044 494.411 250.221 513.935 271.13L519.118 244.044Z" fill="#FAB58B"/>
<path d="M115.436 215.964C111.089 198.55 105.64 167.743 115.854 150.548C130.64 125.644 135.724 117.69 162.057 117.976C188.39 118.261 201.332 135.701 203.176 147.072C205.021 158.442 208.844 202.709 208.18 213.184C207.583 222.538 117.38 223.765 115.429 215.97L115.436 215.964Z" fill="#000015"/>
<path d="M158.998 216.176C177.785 216.176 193.016 197.566 193.016 174.608C193.016 151.651 177.785 133.041 158.998 133.041C140.21 133.041 124.979 151.651 124.979 174.608C124.979 197.566 140.21 216.176 158.998 216.176Z" fill="#F9AF86"/>
<path d="M174.52 191.273C174.52 197.608 170.187 204.68 161.294 204.68C152.401 204.68 148.067 197.608 148.067 191.273H174.52Z" fill="#F38077"/>
<path d="M146.01 174.124C148.389 174.124 150.317 171.647 150.317 168.592C150.317 165.536 148.389 163.059 146.01 163.059C143.631 163.059 141.703 165.536 141.703 168.592C141.703 171.647 143.631 174.124 146.01 174.124Z" fill="#000015"/>
<path d="M171.992 172.333C174.37 172.333 176.299 169.856 176.299 166.801C176.299 163.745 174.37 161.268 171.992 161.268C169.613 161.268 167.685 163.745 167.685 166.801C167.685 169.856 169.613 172.333 171.992 172.333Z" fill="#000015"/>
<path d="M186.088 144.816C186.088 144.816 140.495 163.165 122.855 163.059C122.855 163.059 116.484 147.815 127.952 140.889C139.42 133.963 176.843 118.029 186.088 144.816Z" fill="#000015"/>
<path d="M125.032 172.333C125.032 172.333 131.901 131.728 161.294 131.893C190.687 132.059 193.016 166.801 193.016 166.801C193.016 166.801 192.624 124.596 159.144 126.401C125.663 128.205 125.026 172.326 125.026 172.326L125.032 172.333Z" fill="#8BC6CA"/>
<path d="M147.729 213.27C147.729 213.27 147.052 225.463 142.307 226.817C142.307 226.817 111.819 227.493 105.72 237.656C105.72 237.656 99.5482 252.914 93.5754 282.315C93.5754 282.315 89.713 309.368 90.9208 321.846C92.1286 334.324 136.122 342.775 136.122 342.775L148.738 350.238C148.738 350.238 111.222 318.648 108.507 316.618C108.507 316.618 116.564 277.618 116.564 274.235L123.34 327.743C123.34 327.743 162.415 377.729 161.738 385.179L163.749 383.772C163.072 376.323 196.513 327.743 196.513 327.743L203.289 274.235C203.289 277.618 211.1 315.935 211.1 315.935C208.393 317.965 207.782 343.18 207.782 343.18C207.782 343.18 219.35 338.722 223.099 327.577C226.849 316.439 221.553 275.243 221.553 275.243C217.352 246.055 211.107 237.875 211.107 237.875C205.008 227.719 177.546 226.823 177.546 226.823C172.801 225.47 172.124 213.277 172.124 213.277" fill="#F9AF86"/>
<path d="M148.99 453.858L144.975 562.918L131.689 562.427L123.745 453.752L119.132 402.101L153.642 401.836L148.99 453.858Z" fill="#F9AF86"/>
<path d="M198.332 453.639L189.698 563.515H174.985L172.549 453.003L169.662 402.453L201.464 401.239L198.332 453.639Z" fill="#F9AF86"/>
<path d="M126.26 228.429L133.215 227.467L135.06 252.907H181.296L178.641 226.85L187.514 227.168L203.296 274.222C203.296 274.222 194.403 324.718 199.686 356.746L116.783 356.925C124.986 318.111 116.571 274.215 116.571 274.215C121.681 250.904 126.406 230.472 126.267 232.462" fill="#8BC6CA"/>
<path d="M116.776 351.625L199.679 351.446C199.679 351.446 209.222 394.426 211.406 398.844C213.582 403.269 164.088 402.38 164.088 402.38L161.732 379.858L159.92 402.453H107.392C107.392 402.453 116.849 370.743 116.77 351.625H116.776Z" fill="black"/>
<path d="M224.134 321.839C225.389 266.062 214.153 244.025 214.153 244.025C154.107 257.266 101.652 244.025 101.652 244.025L102.727 246.267C91.7835 284.225 90.4031 309.507 90.9208 321.839C91.4384 334.171 116.564 338.855 116.564 338.855L112.264 356.932H204.968C204.968 356.932 207.835 348.872 203.296 337.913C198.757 326.954 201.643 269.299 203.296 274.222C204.948 279.144 209.322 321.839 209.322 321.839H224.141H224.134ZM120.367 319.06L108.507 316.612L116.093 277.791C120.798 293.831 120.367 319.06 120.367 319.06Z" fill="#F3ACBE"/>
<path d="M179.524 307.245L206.515 301.055V342.437L183.539 354.086L179.524 307.245Z" fill="#161616"/>
<path d="M211.406 334.722C211.406 339.837 208.519 343.976 204.962 343.976C201.405 343.976 198.518 339.83 198.518 334.722C198.518 329.614 201.298 321.846 204.855 321.846C208.413 321.846 211.399 329.614 211.399 334.722H211.406Z" fill="#F9AF86"/>
<path d="M138.332 346.291C142.001 346.291 144.975 339.986 144.975 332.208C144.975 324.43 142.001 318.124 138.332 318.124C134.663 318.124 131.689 324.43 131.689 332.208C131.689 339.986 134.663 346.291 138.332 346.291Z" fill="#F9AF86"/>
<path d="M108.507 316.612L133.832 321.846L131.689 338.643C131.689 338.643 104.964 342.464 91.6906 326.098L108.501 316.612L108.507 316.612Z" fill="#F9AF86"/>
<path d="M153.284 576.126C153.284 576.126 146.256 576.478 137.582 576.478C128.908 576.478 121.88 576.126 121.88 576.126C121.88 576.126 119.265 562.44 137.582 562.44C155.898 562.44 153.284 576.126 153.284 576.126Z" fill="#EA5C52"/>
<path d="M197.973 576.126C197.973 576.126 190.945 576.478 182.272 576.478C173.598 576.478 166.57 576.126 166.57 576.126C166.57 576.126 163.955 562.44 182.272 562.44C200.588 562.44 197.973 576.126 197.973 576.126Z" fill="#EA5C52"/>
<path d="M227.28 372.156L229.238 434.799H326.017L326.462 351.718C326.462 351.718 322.394 399.481 334.008 402.466C345.621 405.452 350.307 408.404 360.885 406.447C371.464 404.49 363.208 380.243 363.208 380.243C363.208 380.243 353.253 349.064 347.944 328.499C342.635 307.935 327.583 305.958 323.469 303.019C320.263 300.73 307.986 297.36 299.963 295.184C297.686 294.568 278.109 304.949 278.109 304.949C277.458 305.082 256.865 294.143 254.516 294.793C246.287 297.075 232.642 301.122 229.437 303.41C229.437 303.41 211.412 305.759 205.539 325.149C199.659 344.533 182.033 386.247 184.966 391.534C187.899 396.821 207.888 387.421 207.888 387.421L226.696 349.82L227.287 372.143L227.28 372.156Z" fill="#3862A4"/>
<path d="M312.678 231.871C312.034 231.871 311.417 231.944 310.813 232.064C306.148 212.089 321.358 210.404 278.029 210.404C231.654 210.404 249.924 212.076 245.252 232.031C244.694 231.925 244.123 231.871 243.533 231.871C238.821 231.871 235.005 235.414 235.005 239.786C235.005 244.157 238.748 247.62 243.387 247.693C243.387 247.972 243.38 248.257 243.38 248.536C243.38 276.597 258.896 299.337 278.029 299.337C297.162 299.337 312.678 276.59 312.678 248.536C312.678 248.257 312.678 247.978 312.671 247.7C312.671 247.7 312.671 247.7 312.678 247.7C317.39 247.7 321.206 244.157 321.206 239.786C321.206 235.414 317.39 231.871 312.678 231.871Z" fill="#FAB58B"/>
<path d="M307.502 219.539C307.502 220.912 312.525 238.266 312.525 238.266L313.289 231.871C313.746 231.566 316.793 232.634 316.793 232.634C317.556 214.517 307.349 203.864 307.349 203.864C301.409 191.074 286.942 188.944 277.803 188.944C268.665 188.944 258.611 193.661 247.037 194.424C235.463 195.187 229.828 188.486 229.828 188.486C228.76 194.881 234.096 197.774 234.096 197.774C229.676 199.751 226.63 196.858 226.63 196.858C227.24 203.406 233.943 205.078 233.943 205.078C232.722 206.146 228.614 205.84 228.614 205.84C229.835 209.191 240.341 213.303 240.341 213.303C237.447 221.218 238.668 233.092 238.668 233.092C240.042 232.482 243.234 231.871 243.234 231.871C243.234 232.329 245.212 236.741 245.212 236.741C245.212 235.978 248.105 219.539 248.105 219.539L246.586 214.823C275.069 221.98 307.92 214.285 307.92 214.285L307.508 219.546L307.502 219.539Z" fill="#0D0E1A"/>
<path d="M262.852 243.6C264.809 243.6 266.395 241.503 266.395 238.917C266.395 236.33 264.809 234.233 262.852 234.233C260.894 234.233 259.308 236.33 259.308 238.917C259.308 241.503 260.894 243.6 262.852 243.6Z" fill="#0D0E1A"/>
<path d="M292.092 243.6C294.049 243.6 295.636 241.503 295.636 238.917C295.636 236.33 294.049 234.233 292.092 234.233C290.134 234.233 288.548 236.33 288.548 238.917C288.548 241.503 290.134 243.6 292.092 243.6Z" fill="#0D0E1A"/>
<path d="M294.72 260.019C294.72 267.953 289.298 276.802 278.162 276.802C267.026 276.802 261.604 267.953 261.604 260.019H294.72Z" fill="#F38177"/>
<path d="M326.429 432.153L324.079 651.791L286.464 644.156L281.175 477.899L277.06 477.316H276.722L272.607 477.899L267.318 644.156L229.702 651.791L227.366 433.333" fill="#575C5F"/>
<path d="M230.021 654.538C230.021 642.53 238.443 629.276 248.829 629.276C259.215 629.276 267.636 642.53 267.636 654.538H230.021Z" fill="#F9AD19"/>
<path d="M289.185 654.538C289.185 642.53 297.607 629.276 307.993 629.276C318.379 629.276 326.8 642.53 326.8 654.538H289.185Z" fill="#F9AD19"/>
<path d="M326.017 431.118H227.572V436.995H326.017V431.118Z" fill="#454847"/>
<path d="M229.483 470.702L250.494 445.885L243.446 437.513L229.483 455.722V470.702Z" fill="#454847"/>
<path d="M324.551 471L303.54 446.176L310.588 437.805L324.551 456.014V471Z" fill="#454847"/>
<path d="M259.029 299.039L296.127 298.661L278.155 310.29L259.029 299.039Z" fill="white"/>
<path d="M311.178 346.285C311.178 346.285 295.589 409.505 286.65 474.662L111.64 444.956C111.64 444.956 116.451 376.064 132.87 313.752L311.178 346.291V346.285Z" fill="#EFEFEF"/>
<path d="M191.788 320.97C191.888 315.895 196.275 318.23 199.719 317.885C203.163 317.54 213.828 321.461 216.098 320.97C218.367 320.479 227.307 323.451 228.601 323.929C229.895 324.406 232.35 333.568 230.14 334.138C227.93 334.709 223.272 339.949 217.14 337.203C211.007 334.457 205.831 331.657 203.15 330.364C201.697 329.66 197.403 329.627 194.761 327.823C192.512 326.29 191.748 323.113 191.788 320.977V320.97Z" fill="#FAB58B"/>
<path d="M231.328 301.4C231.328 301.4 262.321 304.399 277.644 311.497C277.644 311.497 308.218 295.516 323.296 301.221C323.296 301.221 326.82 290.654 314.443 289.811C302.066 288.969 288.462 298.793 288.462 298.793L296.127 298.667C296.127 298.667 281.659 303.709 278.155 310.296C278.155 310.296 272.295 300.538 259.029 299.045L268.725 298.946C268.725 298.946 240.732 282.507 231.328 301.4Z" fill="#1D3F75"/>
<path d="M336.503 384.124C336.503 384.124 337.186 381.722 333.191 380.024C329.196 378.326 313.408 379.036 311.457 378.877C309.506 378.717 293.419 376.946 293.419 376.946C293.419 376.946 287.957 379.003 292.171 381.464C295.921 383.653 305.245 383.985 305.245 383.985C305.245 383.985 302.504 388.164 307.01 389.444C307.01 389.444 303.5 393.252 308.869 395.282C308.869 395.282 307.435 397.073 311.689 398.161C318.02 399.786 322.865 398.931 329.84 397.451C336.808 395.972 336.51 384.124 336.51 384.124H336.503Z" fill="#FAB58B"/>
<path d="M165.312 375.537V358.929C164.896 359.196 164.454 359.431 163.984 359.633C163.526 359.836 163.03 359.985 162.496 360.081L162.144 356.625C162.603 356.529 163.115 356.3 163.68 355.937C164.246 355.575 164.768 355.148 165.248 354.657C165.728 354.156 166.07 353.649 166.272 353.137H169.408V375.537H165.312Z" fill="#E6224B"/>
<path d="M183.813 375.985C181.925 375.985 180.271 375.495 178.853 374.513C177.445 373.521 176.346 372.14 175.557 370.369C174.767 368.588 174.373 366.513 174.373 364.145C174.373 361.884 174.767 359.895 175.557 358.177C176.346 356.449 177.445 355.105 178.853 354.145C180.271 353.174 181.925 352.689 183.813 352.689C185.711 352.689 187.365 353.174 188.773 354.145C190.191 355.116 191.29 356.465 192.069 358.193C192.858 359.911 193.253 361.895 193.253 364.145C193.253 366.513 192.858 368.588 192.069 370.369C191.29 372.14 190.191 373.521 188.773 374.513C187.365 375.495 185.711 375.985 183.813 375.985ZM183.813 372.305C184.826 372.305 185.733 372.028 186.533 371.473C187.343 370.919 187.983 370.044 188.453 368.849C188.922 367.644 189.157 366.076 189.157 364.145C189.157 361.489 188.645 359.521 187.621 358.241C186.607 356.951 185.338 356.305 183.813 356.305C182.298 356.305 181.029 356.945 180.005 358.225C178.981 359.495 178.469 361.468 178.469 364.145C178.469 366.055 178.703 367.612 179.173 368.817C179.642 370.012 180.277 370.892 181.077 371.457C181.887 372.023 182.799 372.305 183.813 372.305Z" fill="#E6224B"/>
<path d="M206.407 375.985C204.519 375.985 202.865 375.495 201.447 374.513C200.039 373.521 198.94 372.14 198.151 370.369C197.361 368.588 196.967 366.513 196.967 364.145C196.967 361.884 197.361 359.895 198.151 358.177C198.94 356.449 200.039 355.105 201.447 354.145C202.865 353.174 204.519 352.689 206.407 352.689C208.305 352.689 209.959 353.174 211.367 354.145C212.785 355.116 213.884 356.465 214.663 358.193C215.452 359.911 215.847 361.895 215.847 364.145C215.847 366.513 215.452 368.588 214.663 370.369C213.884 372.14 212.785 373.521 211.367 374.513C209.959 375.495 208.305 375.985 206.407 375.985ZM206.407 372.305C207.42 372.305 208.327 372.028 209.127 371.473C209.937 370.919 210.577 370.044 211.047 368.849C211.516 367.644 211.751 366.076 211.751 364.145C211.751 361.489 211.239 359.521 210.215 358.241C209.201 356.951 207.932 356.305 206.407 356.305C204.892 356.305 203.623 356.945 202.599 358.225C201.575 359.495 201.063 361.468 201.063 364.145C201.063 366.055 201.297 367.612 201.767 368.817C202.236 370.012 202.871 370.892 203.671 371.457C204.481 372.023 205.393 372.305 206.407 372.305Z" fill="#E6224B"/>
<path d="M231.836 365.489C230.673 365.489 229.681 365.212 228.86 364.657C228.049 364.092 227.43 363.324 227.004 362.353C226.577 361.372 226.364 360.252 226.364 358.993C226.364 357.084 226.865 355.559 227.868 354.417C228.87 353.265 230.193 352.689 231.836 352.689C233.489 352.689 234.812 353.265 235.804 354.417C236.806 355.559 237.308 357.084 237.308 358.993C237.308 360.252 237.089 361.372 236.652 362.353C236.225 363.324 235.601 364.092 234.78 364.657C233.969 365.212 232.988 365.489 231.836 365.489ZM231.836 362.705C232.54 362.705 233.084 362.385 233.468 361.745C233.852 361.095 234.044 360.177 234.044 358.993C234.044 357.809 233.841 356.929 233.436 356.353C233.041 355.767 232.508 355.473 231.836 355.473C231.164 355.473 230.625 355.767 230.22 356.353C229.825 356.929 229.628 357.809 229.628 358.993C229.628 360.177 229.809 361.095 230.172 361.745C230.534 362.385 231.089 362.705 231.836 362.705ZM231.42 375.537L244.636 353.137H247.804L234.62 375.537H231.42ZM247.356 375.985C246.193 375.985 245.201 375.708 244.38 375.153C243.569 374.588 242.95 373.82 242.524 372.849C242.097 371.868 241.884 370.748 241.884 369.489C241.884 367.58 242.385 366.055 243.388 364.913C244.39 363.761 245.713 363.185 247.356 363.185C249.009 363.185 250.332 363.761 251.324 364.913C252.326 366.055 252.828 367.58 252.828 369.489C252.828 370.748 252.609 371.868 252.172 372.849C251.745 373.82 251.121 374.588 250.3 375.153C249.489 375.708 248.508 375.985 247.356 375.985ZM247.356 373.201C248.06 373.201 248.604 372.881 248.988 372.241C249.372 371.591 249.564 370.673 249.564 369.489C249.564 368.305 249.361 367.425 248.956 366.849C248.561 366.263 248.028 365.969 247.356 365.969C246.684 365.969 246.145 366.263 245.74 366.849C245.345 367.425 245.148 368.305 245.148 369.489C245.148 370.673 245.329 371.591 245.692 372.241C246.054 372.881 246.609 373.201 247.356 373.201Z" fill="#E6224B"/>
<path d="M162.74 415.601C161.247 415.601 159.94 415.415 158.82 415.041C157.711 414.679 156.847 414.156 156.228 413.473C155.62 412.79 155.316 411.975 155.316 411.025C155.316 410.225 155.535 409.511 155.972 408.881C156.42 408.263 157.065 407.719 157.908 407.249C157.481 406.993 157.14 406.673 156.884 406.289C156.628 405.905 156.5 405.468 156.5 404.977C156.5 404.465 156.644 404.022 156.932 403.649C157.231 403.265 157.62 402.961 158.1 402.737C157.289 402.161 156.676 401.425 156.26 400.529C155.844 399.622 155.636 398.641 155.636 397.585C155.636 396.433 155.887 395.377 156.388 394.417C156.889 393.447 157.62 392.673 158.58 392.097C159.551 391.511 160.735 391.217 162.132 391.217C162.857 391.217 163.524 391.308 164.132 391.489C164.751 391.671 165.3 391.921 165.78 392.241C166.1 392.06 166.564 391.9 167.172 391.761C167.78 391.612 168.457 391.537 169.204 391.537C169.385 391.537 169.556 391.537 169.716 391.537C169.887 391.537 170.057 391.537 170.228 391.537L169.972 394.033C169.737 394.033 169.497 394.033 169.252 394.033C169.017 394.033 168.777 394.033 168.532 394.033C168.436 394.033 168.308 394.033 168.148 394.033C167.988 394.033 167.817 394.044 167.636 394.065C167.956 394.556 168.196 395.105 168.356 395.713C168.516 396.321 168.596 396.945 168.596 397.585C168.596 398.737 168.345 399.799 167.844 400.769C167.353 401.729 166.628 402.503 165.668 403.089C164.708 403.665 163.529 403.953 162.132 403.953C161.833 403.953 161.545 403.932 161.268 403.889C160.991 403.847 160.713 403.793 160.436 403.729C160.201 403.825 160.084 403.996 160.084 404.241C160.084 404.529 160.26 404.748 160.612 404.897C160.964 405.047 161.513 405.18 162.26 405.297L165.012 405.649C166.729 405.873 168.073 406.359 169.044 407.105C170.025 407.852 170.516 408.913 170.516 410.289C170.516 411.356 170.207 412.284 169.588 413.073C168.98 413.873 168.095 414.492 166.932 414.929C165.769 415.377 164.372 415.601 162.74 415.601ZM162.9 412.593C164.244 412.593 165.263 412.428 165.956 412.097C166.649 411.767 166.996 411.26 166.996 410.577C166.996 409.969 166.751 409.521 166.26 409.233C165.78 408.945 165.012 408.721 163.956 408.561L160.452 408.049C159.929 408.252 159.492 408.529 159.14 408.881C158.788 409.244 158.612 409.713 158.612 410.289C158.612 411.068 158.991 411.644 159.748 412.017C160.505 412.401 161.556 412.593 162.9 412.593ZM162.132 401.009C163.081 401.009 163.796 400.7 164.276 400.081C164.767 399.452 165.012 398.62 165.012 397.585C165.012 396.54 164.767 395.708 164.276 395.089C163.796 394.471 163.081 394.161 162.132 394.161C161.172 394.161 160.447 394.471 159.956 395.089C159.465 395.708 159.22 396.54 159.22 397.585C159.22 398.62 159.465 399.452 159.956 400.081C160.447 400.7 161.172 401.009 162.132 401.009Z" fill="#E6224B"/>
<path d="M172.435 407.537V391.537H176.147L176.243 393.233C176.649 392.785 177.219 392.337 177.955 391.889C178.691 391.441 179.497 391.217 180.371 391.217C180.627 391.217 180.862 391.239 181.075 391.281L180.787 395.185C180.553 395.121 180.318 395.079 180.083 395.057C179.859 395.036 179.635 395.025 179.411 395.025C178.739 395.025 178.126 395.18 177.571 395.489C177.017 395.799 176.627 396.177 176.403 396.625V407.537H172.435Z" fill="#E6224B"/>
<path d="M186.266 407.857C185.413 407.857 184.634 407.671 183.93 407.297C183.226 406.913 182.666 406.364 182.25 405.649C181.834 404.935 181.626 404.071 181.626 403.057C181.626 402.151 181.834 401.377 182.25 400.737C182.677 400.087 183.232 399.548 183.914 399.121C184.608 398.684 185.354 398.343 186.154 398.097C186.965 397.841 187.76 397.655 188.538 397.537C189.328 397.42 190.021 397.351 190.618 397.329C190.576 396.412 190.341 395.745 189.914 395.329C189.488 394.913 188.762 394.705 187.738 394.705C187.024 394.705 186.325 394.807 185.642 395.009C184.97 395.201 184.208 395.505 183.354 395.921L183.002 392.689C183.962 392.22 184.922 391.868 185.882 391.633C186.853 391.398 187.834 391.281 188.826 391.281C190.021 391.281 191.05 391.495 191.914 391.921C192.778 392.348 193.445 393.036 193.914 393.985C194.384 394.924 194.618 396.167 194.618 397.713V402.033C194.618 402.833 194.656 403.415 194.73 403.777C194.805 404.129 194.944 404.353 195.146 404.449C195.349 404.545 195.642 404.593 196.026 404.593H196.538L196.186 407.857H194.746C194.149 407.857 193.616 407.777 193.146 407.617C192.688 407.468 192.293 407.255 191.962 406.977C191.632 406.7 191.365 406.375 191.162 406.001C190.64 406.588 189.93 407.047 189.034 407.377C188.149 407.697 187.226 407.857 186.266 407.857ZM187.93 404.817C188.282 404.817 188.72 404.727 189.242 404.545C189.765 404.353 190.234 404.06 190.65 403.665V400.017C189.904 400.049 189.157 400.172 188.41 400.385C187.664 400.599 187.04 400.913 186.538 401.329C186.037 401.745 185.786 402.268 185.786 402.897C185.786 403.548 185.957 404.033 186.298 404.353C186.64 404.663 187.184 404.817 187.93 404.817Z" fill="#E6224B"/>
<path d="M203.714 407.857C202.711 407.857 201.895 407.655 201.266 407.249C200.636 406.833 200.172 406.305 199.874 405.665C199.575 405.025 199.426 404.359 199.426 403.665V394.801H197.154L197.506 391.537H199.426V388.017L203.394 387.601V391.537H206.914V394.801H203.394V402.033C203.394 402.844 203.442 403.431 203.538 403.793C203.634 404.145 203.852 404.369 204.194 404.465C204.535 404.551 205.079 404.593 205.826 404.593H206.914L206.562 407.857H203.714Z" fill="#E6224B"/>
<path d="M216.122 407.857C214.458 407.857 213.13 407.527 212.138 406.865C211.146 406.204 210.431 405.297 209.994 404.145C209.556 402.983 209.338 401.649 209.338 400.145V391.537H213.306V400.145C213.306 401.628 213.551 402.732 214.042 403.457C214.543 404.172 215.354 404.529 216.474 404.529C217.37 404.529 218.111 404.316 218.698 403.889C219.295 403.463 219.791 402.865 220.186 402.097L219.482 404.113V391.537H223.45V407.537H219.738L219.546 404.753L220.41 405.873C220.026 406.364 219.418 406.817 218.586 407.233C217.764 407.649 216.943 407.857 216.122 407.857Z" fill="#E6224B"/>
<path d="M227.154 407.537V391.537H231.122V407.537H227.154ZM227.154 389.105V385.137H231.122V389.105H227.154Z" fill="#E6224B"/>
<path d="M240.058 407.857C239.055 407.857 238.239 407.655 237.61 407.249C236.98 406.833 236.516 406.305 236.218 405.665C235.919 405.025 235.77 404.359 235.77 403.665V394.801H233.498L233.85 391.537H235.77V388.017L239.738 387.601V391.537H243.258V394.801H239.738V402.033C239.738 402.844 239.786 403.431 239.882 403.793C239.978 404.145 240.196 404.369 240.538 404.465C240.879 404.551 241.423 404.593 242.17 404.593H243.258L242.906 407.857H240.058Z" fill="#E6224B"/>
<path d="M253.554 407.857C251.623 407.857 250.012 407.473 248.722 406.705C247.442 405.927 246.482 404.903 245.842 403.633C245.202 402.353 244.882 400.956 244.882 399.441C244.882 397.98 245.18 396.631 245.778 395.393C246.386 394.156 247.271 393.164 248.434 392.417C249.596 391.66 251.015 391.281 252.69 391.281C254.226 391.281 255.506 391.596 256.53 392.225C257.553 392.855 258.322 393.697 258.834 394.753C259.346 395.798 259.602 396.956 259.602 398.225C259.602 398.577 259.58 398.935 259.538 399.297C259.495 399.649 259.431 400.017 259.346 400.401H249.01C249.159 401.393 249.468 402.199 249.938 402.817C250.418 403.425 250.999 403.873 251.682 404.161C252.375 404.449 253.116 404.593 253.906 404.593C254.834 404.593 255.698 404.476 256.498 404.241C257.298 403.996 258.034 403.676 258.706 403.281L258.898 406.641C258.29 406.961 257.532 407.244 256.626 407.489C255.719 407.735 254.695 407.857 253.554 407.857ZM249.106 397.713H255.57C255.57 397.233 255.479 396.753 255.298 396.273C255.116 395.783 254.812 395.372 254.386 395.041C253.97 394.711 253.404 394.545 252.69 394.545C251.666 394.545 250.86 394.844 250.274 395.441C249.687 396.039 249.298 396.796 249.106 397.713Z" fill="#E6224B"/>
</svg>
